<?xml version="1.0" encoding="utf-8"?>
<svg viewBox="-297.798 -375.629 1121 1095.461" xmlns="http://www.w3.org/2000/svg">
  <path fill="#332410" opacity="1.000000" stroke="none" d="M 823.202 246.391 C 817.816 252.769 810.002 253.885 803.103 256.687 C 788.441 262.643 773.568 268.077 758.822 273.831 C 734.185 283.444 709.593 293.176 684.932 302.73 C 683.126 303.43 682.96 303.961 683.045 305.815 C 683.583 317.582 683.538 329.38 684.273 341.131 C 685.522 361.116 686.611 381.098 687.357 401.111 C 687.824 413.661 688.706 426.21 689.353 438.763 C 690.042 452.148 690.711 465.531 691.353 478.918 C 691.962 491.636 692.71 504.351 693.353 517.072 C 694.004 529.956 694.929 542.823 695.374 555.727 C 695.526 560.14 695.823 564.635 696.302 569.049 C 696.887 574.431 694.061 577.466 690.044 579.833 C 672.231 590.328 654.193 600.453 636.567 611.25 C 619.471 621.723 601.915 631.431 584.928 642.045 C 557.317 659.295 528.952 675.262 501.15 692.182 C 487.926 700.23 474.25 707.575 461.42 716.243 C 454.522 720.903 447.431 720.224 440.261 718.656 C 425.193 715.358 409.874 713.629 394.717 710.897 C 371.176 706.655 347.493 703.252 323.943 699.011 C 302.325 695.117 280.514 692.31 258.832 688.752 C 237.981 685.329 217.206 681.443 196.362 677.974 C 179.057 675.093 161.682 672.628 144.37 669.782 C 129.34 667.311 114.374 664.44 99.343 661.969 C 82.03 659.123 64.636 656.755 47.353 653.743 C 32.346 651.127 17.305 648.657 2.285 646.168 C -13.235 643.597 -28.779 641.031 -44.358 638.739 C -59.424 636.522 -74.378 633.545 -89.407 631.061 C -104.613 628.548 -119.854 626.246 -135.075 623.82 C -147.701 621.807 -160.343 619.88 -172.929 617.638 C -177.453 616.832 -181.997 612.261 -181.981 606.456 C -181.721 513.623 -180.959 420.78 -182.078 327.96 C -182.889 260.677 -182.191 193.405 -182.806 126.131 C -182.818 124.829 -182.948 123.529 -183.056 121.641 C -192.508 125.279 -201.582 128.865 -210.723 132.271 C -235.094 141.353 -259.509 150.312 -283.865 159.432 C -288.655 161.225 -293.04 161.662 -297.421 157.845 C -297.798 155.458 -297.798 153.087 -297.798 150.272 C -291.957 145.606 -288.077 139.493 -283.115 134.414 C -272.394 123.438 -263.223 111.051 -252.561 99.966 C -241.441 88.404 -230.388 76.722 -220.116 64.417 C -209.112 51.237 -197.064 38.987 -186.287 25.647 C -181.447 19.655 -174.765 17.172 -168.323 14.076 C -155.331 7.832 -142.451 1.304 -129.345 -4.633 C -113.046 -12.015 -97.087 -20.099 -80.754 -27.414 C -61.724 -35.936 -43.405 -46.04 -24.421 -54.672 C -12.559 -60.066 -0.935 -65.924 11.005 -71.733 C 11.763 -73.431 12.93 -74.18 14.321 -73.887 C 21.553 -72.365 28.984 -71.517 35.87 -67.585 C 37.259 -63.498 34.606 -62.145 32.01 -60.894 C 22.12 -56.131 12.224 -51.379 2.33 -46.625 C -17.017 -37.328 -36.503 -28.321 -55.834 -18.989 C -81.61 -6.548 -107.524 5.603 -133.348 17.942 C -136.006 19.212 -138.906 20.145 -141.871 23.113 C -79.523 39.792 -17.696 55.889 44.419 72.397 C 49.915 73.635 54.967 75.027 60.305 76.857 C 83.371 82.293 105.786 88.665 128.34 94.498 C 162.982 103.457 197.59 112.549 232.177 121.716 C 276.576 133.485 321.038 145.014 365.398 156.933 C 384.363 162.029 403.428 166.749 422.364 171.958 C 425.848 172.917 429.174 172.867 432.626 171.589 C 449.638 165.291 466.574 158.794 483.421 152.067 C 486.057 151.014 488.804 150.358 491.817 149.266 C 496.939 146.625 502.315 145.714 507.452 143.124 C 520.96 137.805 534.138 132.689 547.349 127.659 C 570.049 119.016 592.689 110.222 615.353 101.487 C 632.269 94.966 649.284 88.704 666.44 81.836 C 597.729 63.232 528.769 46.551 460.1 27.234 C 454.328 23.717 453.846 17.418 451.177 12.395 C 450.345 10.828 449.333 9.112 450.981 7.005 C 462.419 9.514 473.524 12.268 484.629 15.017 C 502.865 19.532 521.01 24.419 539.19 29.132 C 558.164 34.051 577.065 39.324 596.064 44.171 C 614.123 48.778 632.144 53.553 650.198 58.166 C 666.642 62.368 682.933 67.539 699.499 71.017 C 708.768 72.963 711.933 79.242 716.288 85.303 C 724.297 96.45 732.33 107.599 739.814 119.099 C 745.316 127.554 750.971 135.942 756.705 144.198 C 762.655 152.766 768.462 161.477 774.668 169.892 C 780.457 177.741 785.74 185.963 791.245 194.022 C 797.232 202.786 803.202 211.561 809.208 220.312 C 813.631 226.757 818.099 233.171 822.874 239.714 C 823.202 241.87 823.202 243.912 823.202 246.391 Z"/>
  <path fill="#000000" opacity="1.000000" stroke="none" d="M 60.553 78.577 C 55.098 77.528 50.02 76.245 44.562 74.895 C 41.52 71.873 42.702 68.476 43.397 65.346 C 47.541 46.674 51.754 28.038 57.593 9.768 C 61.452 -2.309 61.345 -15.182 62.605 -27.735 C 63.318 -34.84 65.073 -41.827 64.779 -49.063 C 64.464 -56.825 63.395 -58.333 55.845 -59.655 C 50.923 -60.517 46.055 -61.638 41.215 -62.858 C 39.17 -63.373 36.897 -63.669 35.434 -66.145 C 27.463 -68.36 19.698 -70.209 11.534 -72.058 C -0.542 -76.365 -10.588 -82.994 -19.293 -92.004 C -27.195 -100.184 -32.888 -109.549 -36.704 -120.103 C -42.96 -137.409 -46.935 -155.257 -49.949 -173.425 C -53.601 -195.438 -51.529 -217.509 -51.476 -239.519 C -51.448 -250.761 -50.792 -262.498 -45.82 -273.145 C -41.522 -282.351 -36.052 -290.653 -29.336 -298.495 C -16.49 -313.495 -2.237 -327.1 11.178 -341.52 C 17.099 -347.884 24.603 -352.151 32.196 -356.52 C 40.754 -361.444 49.648 -365.329 58.729 -368.85 C 65.079 -371.312 71.908 -372.397 78.721 -373.179 C 90.551 -374.538 102.589 -376.808 114.276 -374.891 C 131.793 -372.019 149.514 -374.129 166.951 -371.267 C 170.198 -370.734 173.605 -371.17 176.938 -371.173 C 193.281 -371.191 209.429 -368.922 225.656 -367.389 C 242.482 -365.799 259.021 -362.124 275.902 -361.172 C 278.039 -361.051 280.306 -360.638 282.138 -360.002 C 290.586 -357.071 296.208 -361.786 301.984 -366.461 C 302.113 -366.565 302.218 -366.699 302.343 -366.808 C 314.03 -377.036 316.85 -371.32 322.209 -361.359 C 324.038 -357.959 325.48 -354.347 327.36 -350.978 C 328.627 -348.707 331.47 -349.423 333.496 -348.45 C 337.718 -346.422 341.916 -344.39 346.408 -342.836 C 350.603 -341.384 352.974 -342.697 355.802 -345.19 C 359.936 -348.832 363.873 -352.525 369.965 -353.36 C 379.711 -354.697 387.184 -351.256 391.127 -342.327 C 395.131 -333.261 398.32 -323.945 397.125 -313.841 C 396.609 -309.483 398.12 -306.067 400.836 -303.145 C 406.107 -297.476 411.012 -291.513 415.549 -285.268 C 420.666 -278.223 423.843 -270.304 425.209 -261.67 C 427.836 -245.059 431.282 -228.528 432.862 -211.819 C 433.806 -201.835 435.906 -191.418 433.85 -181.619 C 431.827 -171.976 430.393 -162.332 429.565 -152.609 C 428.861 -144.341 429.558 -135.965 429.138 -127.661 C 428.476 -114.577 427.847 -101.483 424.511 -88.674 C 421.964 -78.898 423.997 -69.208 425.384 -59.403 C 426.952 -48.307 432.99 -39.084 436.464 -28.817 C 440.252 -17.62 445.011 -6.75 449.402 4.24 C 449.69 4.961 450.447 5.495 451.15 6.439 C 454.195 12.948 457.075 19.134 460.136 25.629 C 463.254 27.577 464.906 30.209 466.531 33.095 C 475.819 49.597 481.439 67.553 487.554 85.316 C 489.78 91.781 492.547 98.031 495.599 104.116 C 501.694 116.269 503.76 129.757 508.65 142.295 C 508.9 142.935 508.593 143.603 508.222 144.592 C 503.955 148.164 498.803 148.91 493.687 150.697 C 490.008 150.594 488.494 148.709 487.525 145.612 C 482.462 129.429 477.407 113.259 469.884 97.946 C 466.227 90.503 463.792 82.425 461.437 74.49 C 457.081 59.812 449.608 46.651 442.924 33.087 C 434.61 16.217 426.546 -0.775 420.478 -18.597 C 418.052 -25.721 413.767 -31.915 411.539 -39.147 C 405.491 -58.779 403.869 -78.544 407.979 -98.758 C 410.369 -110.509 411.663 -122.453 411.637 -134.419 C 411.601 -151.435 412.687 -168.282 415.296 -185.123 C 416.903 -195.492 415.704 -206.012 413.847 -216.411 C 411.129 -231.631 409.443 -247.035 406.057 -262.135 C 404.382 -269.604 399.914 -275.72 395.443 -281.757 C 394.134 -283.524 392.496 -284.295 390.226 -283.6 C 387.961 -282.906 385.647 -282.584 383.373 -284.651 C 381.445 -288.905 381.869 -292.748 383.641 -296.541 C 384.416 -298.199 384.873 -299.993 385.701 -301.625 C 392.087 -314.209 389.755 -326.21 382.921 -337.675 C 377.76 -346.331 372.93 -347.039 365.049 -340.875 C 361.382 -338.007 357.864 -334.971 354.553 -331.677 C 350.173 -327.32 346.929 -322.474 346.528 -316.098 C 346.433 -314.598 346.191 -313.097 344.431 -311.951 C 338.077 -310.595 335.598 -311.9 336.059 -317.592 C 336.734 -325.915 332.065 -328.772 325.464 -331.486 C 306.231 -339.395 285.867 -341.232 265.576 -343.827 C 252.716 -345.472 239.908 -347.559 227.028 -349.083 C 207.219 -351.427 187.402 -353.247 167.418 -353.947 C 148.528 -354.609 129.541 -354.636 110.745 -357.386 C 103.762 -358.408 96.843 -356.324 89.444 -356.412 C 66.538 -354.203 46.711 -345.226 28.31 -332.6 C 24.153 -329.748 20.627 -326.216 17.365 -322.418 C 6.737 -310.044 -5.918 -299.6 -16.185 -286.866 C -26.323 -274.292 -32.072 -260.148 -33.364 -244.022 C -34.496 -229.884 -34.226 -215.739 -34.353 -201.589 C -34.537 -181.189 -29.602 -161.692 -24.158 -142.263 C -22.09 -134.881 -19.913 -127.569 -16.82 -120.52 C -9.874 -104.689 1.932 -94.484 18.446 -89.785 C 32.228 -85.863 46.33 -83.253 60.705 -80.027 C 64.751 -79.504 68.348 -78.841 72.002 -78.46 C 80.076 -77.616 84.321 -72.643 84.668 -64.549 C 85.484 -45.506 82.776 -26.697 81.488 -7.78 C 80.279 9.971 74.143 26.313 69.872 43.204 C 67.299 53.38 65.626 63.757 62.879 73.891 C 62.452 75.468 62.474 77.252 60.553 78.577 Z"/>
  <path fill="#5A3806" opacity="1.000000" stroke="none" d="M 87.848 -357.985 C 97.909 -359.62 107.727 -361.514 117.589 -358.841 C 119.737 -358.259 121.849 -358.153 124.001 -358.185 C 144.105 -358.482 164.114 -356.313 184.205 -355.853 C 201.345 -355.46 218.463 -352.963 235.5 -350.415 C 253.981 -347.651 272.561 -345.544 291.102 -343.183 C 307.356 -341.114 322.636 -335.909 337.417 -329.018 C 339.464 -328.064 340.137 -326.909 339.242 -324.774 C 338.4 -322.768 338.27 -320.625 338.156 -318.443 C 337.957 -314.615 339.409 -312.749 343.774 -313.193 C 346.941 -313.106 349.659 -312.274 351.484 -310.425 C 357.355 -304.48 365.127 -300.966 370.917 -295.051 C 374.615 -291.272 379.376 -289.436 383.836 -286.367 C 386.454 -284.602 388.686 -284.676 389.753 -287.5 C 391.003 -290.808 392.432 -289.685 393.888 -287.947 C 401.585 -278.758 408.197 -268.966 410.155 -256.792 C 412.809 -240.29 415.832 -223.828 417.811 -207.242 C 418.984 -197.416 418.871 -187.396 416.873 -177.509 C 415.164 -169.057 414.127 -160.427 414.305 -151.836 C 414.766 -129.673 412.323 -107.865 408.61 -86.043 C 406.778 -75.278 408.613 -64.272 410.435 -53.364 C 412.329 -42.025 418.048 -32.338 421.795 -21.822 C 429.933 1.014 440.108 22.961 451.448 44.274 C 460.406 61.109 464.47 79.664 472.241 96.793 C 479.508 112.811 485.351 129.25 490.199 146.095 C 490.702 147.843 491.926 148.878 493.128 150.459 C 483.214 155.47 472.638 159.006 462.235 162.982 C 451.979 166.902 441.739 170.866 431.543 174.938 C 429.213 175.869 427.042 175.803 424.73 175.19 C 400.605 168.792 376.483 162.38 352.345 156.03 C 330.302 150.23 308.232 144.534 286.189 138.732 C 267.208 133.737 248.258 128.626 229.28 123.622 C 201.767 116.368 174.243 109.157 146.721 101.942 C 119.52 94.811 92.313 87.703 65.115 80.563 C 63.67 80.183 62.28 79.598 60.52 78.96 C 60.578 68.977 63.898 59.695 65.614 50.108 C 67.806 37.861 72.525 26.305 75.516 14.277 C 78.644 1.695 78.391 -11.342 80.396 -24.04 C 82.516 -37.463 82.049 -50.855 82.183 -64.283 C 82.257 -71.69 78.167 -75.914 70.655 -76.116 C 67.29 -76.206 64.085 -76.753 60.621 -78.117 C 56.792 -82.875 51.851 -85.77 47.525 -89.376 C 45.902 -90.728 43.805 -91.913 45.033 -94.969 C 47.171 -96.786 49.347 -96.405 51.487 -96.161 C 65.494 -94.56 79.36 -96.398 93.242 -97.848 C 94.248 -97.953 95.153 -98.332 96.177 -99.534 C 92.162 -100.889 88.388 -99.949 84.891 -99.385 C 67.884 -96.641 51.126 -97.578 34.502 -101.857 C 30.971 -102.766 27.322 -103.432 24.25 -106.38 C 23.391 -110.111 21.488 -112.84 18.917 -115.015 C 13.757 -119.384 11.001 -125.194 8.622 -131.29 C 4.87 -140.904 0.706 -150.351 -3.02 -159.976 C -6.339 -168.552 -9.014 -177.251 -9.397 -186.56 C -9.624 -192.067 -11.469 -197.333 -12.546 -202.715 C -13.538 -207.677 -13.404 -212.615 -12.573 -217.602 C -10.079 -232.563 -3.508 -245.998 2.606 -259.667 C 13.772 -284.629 31.612 -304.199 52.236 -321.378 C 65.338 -332.291 76.776 -344.649 87.848 -357.985 Z"/>
  <path fill="#AD7C38" opacity="1.000000" stroke="none" d="M 436.005 214.591 C 442.067 220.315 445.397 227.601 450.096 233.904 C 456.374 242.323 461.964 251.254 467.886 259.939 C 475.534 271.154 483.092 282.45 490.903 293.528 C 496.856 301.973 502.444 310.694 508.681 318.963 C 514.69 326.929 519.972 335.442 525.626 343.678 C 528.123 347.315 530.71 350.893 533.333 354.441 C 536.12 358.21 539.658 358.564 543.922 357.023 C 557.695 352.044 571.294 346.641 584.861 341.128 C 597.235 336.099 609.852 331.671 622.326 326.886 C 635.549 321.814 648.745 316.669 661.923 311.482 C 667.646 309.23 668.015 309.495 668.227 315.543 C 668.829 332.784 669.265 350.038 670.32 367.253 C 671.08 379.656 671.708 392.058 672.325 404.468 C 673.304 424.159 674.465 443.84 675.375 463.539 C 675.947 475.943 676.687 488.346 677.252 500.758 C 678.223 522.099 679.432 543.431 680.745 564.754 C 680.882 566.979 679.85 567.82 678.475 568.628 C 661.983 578.32 645.41 587.876 628.958 597.636 C 606.461 610.982 584.075 624.516 561.596 637.892 C 531.312 655.913 500.991 673.871 470.668 691.826 C 466.908 694.053 463.037 696.093 459.022 698.328 C 458.662 697.605 458.313 697.222 458.299 696.827 C 457.912 686.21 457.784 675.578 457.154 664.976 C 455.945 644.627 454.855 624.278 454.011 603.908 C 453.545 592.673 452.682 581.437 452.17 570.188 C 451.212 549.162 449.888 528.155 449.031 507.12 C 448.512 494.383 447.8 481.638 447.078 468.906 C 445.935 448.719 445 428.529 444.054 408.333 C 443.465 395.762 442.804 383.184 442.072 370.62 C 440.907 350.6 440.088 330.569 439.052 310.548 C 438.35 296.976 437.787 283.396 437.018 269.835 C 435.995 251.812 434.739 233.805 434.311 215.292 C 434.747 214.489 435.186 214.335 436.005 214.591 Z"/>
  <path fill="#CC9141" opacity="1.000000" stroke="none" d="M 449.381 204.05 C 444.499 199.783 442.051 194.177 438.425 189.199 C 454.001 183.351 469.393 177.714 484.677 171.798 C 503.114 164.662 521.304 156.858 539.897 150.166 C 552.995 145.451 565.908 140.284 578.934 135.402 C 600.868 127.182 622.644 118.536 644.516 110.149 C 658.119 104.932 671.776 99.859 685.411 94.727 C 686.485 94.323 687.619 94.054 688.655 93.573 C 700.512 88.07 700.254 88.22 707.186 99.391 C 712.522 107.989 718.626 116.11 724.344 124.473 C 730.32 133.214 736.297 141.955 742.154 150.775 C 743.762 153.198 746.595 154.834 747.092 158.397 C 748.725 160.954 749.499 163.665 752.001 165.595 C 752.296 165.769 752.232 165.799 752.247 165.767 C 754.096 169.004 755.534 172.516 758.429 175.187 C 758.751 175.039 758.947 175.103 758.975 175.203 C 759.322 177.686 760.807 179.469 762.435 181.191 C 762.753 181.041 762.948 181.104 762.975 181.203 C 763.682 183.677 764.732 185.829 767.002 187.595 C 767.296 187.769 767.232 187.799 767.247 187.767 C 768.608 189.902 769.384 192.403 771.437 194.193 C 771.753 194.042 771.949 194.105 771.976 194.205 C 773.048 198.25 775.828 201.14 778.429 204.187 C 778.75 204.039 778.947 204.103 778.974 204.203 C 779.322 206.686 780.807 208.469 782.435 210.191 C 782.753 210.041 782.948 210.104 782.975 210.203 C 783.682 212.677 784.732 214.829 787.002 216.595 C 787.296 216.769 787.232 216.799 787.247 216.767 C 788.608 218.902 789.384 221.403 791.437 223.193 C 791.753 223.042 791.949 223.105 791.976 223.204 C 792.909 227.155 795.634 229.995 797.764 233.097 C 800.042 236.414 799.259 238.149 795.886 239.58 C 783.176 244.975 770.22 249.741 757.362 254.757 C 738.614 262.071 719.874 269.405 701.086 276.613 C 682.478 283.753 663.879 290.922 645.334 298.218 C 621.517 307.589 597.455 316.33 573.795 326.111 C 565.205 329.662 556.237 332.279 547.773 336.185 C 544.929 337.497 542.276 337.114 539.452 335.077 C 539.109 334.888 539.174 334.857 539.159 334.89 C 537.796 332.755 537.021 330.253 534.968 328.464 C 534.652 328.615 534.455 328.551 534.429 328.452 C 533.607 324.829 530.983 322.339 528.975 319.468 C 528.653 319.616 528.457 319.553 528.431 319.454 C 527.723 316.979 526.673 314.827 524.403 313.061 C 524.108 312.887 524.173 312.858 524.158 312.89 C 522.671 310.687 521.903 307.983 519.403 306.061 C 519.108 305.887 519.173 305.858 519.158 305.89 C 517.309 302.652 515.871 299.14 512.975 296.469 C 512.654 296.617 512.457 296.553 512.43 296.453 C 512.083 293.97 510.598 292.188 508.97 290.465 C 508.652 290.615 508.457 290.553 508.43 290.454 C 507.723 287.979 506.673 285.827 504.403 284.061 C 504.108 283.887 504.173 283.858 504.158 283.89 C 502.83 281.733 501.73 279.42 499.966 277.462 C 499.65 277.615 499.455 277.551 499.428 277.452 C 498.357 273.406 495.576 270.517 492.976 267.47 C 492.654 267.618 492.457 267.553 492.43 267.453 C 492.083 264.97 490.598 263.188 488.97 261.465 C 488.652 261.615 488.457 261.553 488.43 261.454 C 487.723 258.979 486.673 256.827 484.403 255.061 C 484.108 254.887 484.173 254.858 484.158 254.89 C 482.796 252.755 482.021 250.253 479.968 248.464 C 479.652 248.615 479.455 248.551 479.428 248.452 C 478.357 244.406 475.576 241.517 472.976 238.47 C 472.654 238.618 472.457 238.553 472.43 238.453 C 472.083 235.97 470.598 234.188 468.97 232.465 C 468.652 232.615 468.457 232.553 468.43 232.454 C 467.723 229.979 466.673 227.827 464.403 226.061 C 464.108 225.887 464.173 225.858 464.158 225.89 C 462.796 223.755 462.021 221.253 459.968 219.464 C 459.652 219.615 459.455 219.551 459.429 219.452 C 458.607 215.829 455.983 213.339 453.975 210.468 C 453.653 210.616 453.457 210.553 453.431 210.454 C 452.708 207.979 451.681 205.806 449.381 204.05 Z"/>
  <path fill="#745325" opacity="1.000000" stroke="none" d="M 35.082 -66.176 C 44.855 -65.115 54.124 -61.881 63.876 -61.065 C 67.299 -60.779 67.045 -57.618 67.128 -55.306 C 67.38 -48.347 67.231 -41.406 66.15 -34.476 C 64.958 -26.83 63.453 -19.126 63.375 -11.434 C 63.227 3.242 57.825 16.558 54.111 30.353 C 51.426 40.331 49.474 50.507 47.212 60.598 C 46.211 65.067 45.251 69.546 44.227 74.424 C 27.964 70.569 11.748 66.302 -4.473 62.055 C -29.363 55.539 -54.268 49.08 -79.145 42.516 C -97.926 37.561 -116.665 32.448 -135.443 27.481 C -139.889 26.305 -144.458 25.569 -148.665 23.637 C -148.376 21.32 -146.406 21.635 -145.228 21.066 C -106.802 2.522 -68.368 -16.004 -29.878 -34.415 C -9.829 -44.004 10.328 -53.366 30.429 -62.846 C 32.068 -63.62 33.865 -64.193 35.082 -66.176 Z"/>
  <path fill="#745325" opacity="1.000000" stroke="none" d="M 508.49 144.874 C 503.73 139.187 502.099 132.095 500.558 125.427 C 498.113 114.841 493.373 105.334 489 95.659 C 484.511 85.727 481.207 75.349 477.772 65.12 C 474.174 54.408 469.229 44.503 464.317 34.484 C 463.025 31.849 461.646 29.257 460.312 26.292 C 468.391 26.28 475.897 29.225 483.593 31.2 C 511.097 38.259 538.536 45.571 565.996 52.797 C 589.282 58.924 612.557 65.095 635.851 71.19 C 648.373 74.466 660.926 77.622 674.759 81.164 C 667 84.356 660.441 87.229 653.757 89.775 C 630.784 98.524 607.707 107.005 584.783 115.879 C 559.529 125.655 534.387 135.717 508.49 144.874 Z"/>
  <path fill="#CC9141" opacity="1.000000" stroke="none" d="M -167.798 187.828 C -167.798 138.834 -167.799 90.339 -167.796 41.844 C -167.796 35.252 -167.809 35.325 -161.306 37.06 C -140.108 42.717 -118.915 48.397 -97.68 53.914 C -77.072 59.268 -56.483 64.71 -35.886 70.1 C -18.31 74.699 -0.741 79.377 16.808 84.105 C 39.56 90.234 62.328 96.307 85.124 102.272 C 105.395 107.576 125.738 112.607 146.003 117.932 C 163.739 122.592 181.38 127.613 199.12 132.256 C 220.818 137.934 242.672 143.039 264.278 149.043 C 281.65 153.87 299.121 158.296 316.528 162.978 C 338.186 168.803 359.751 175.011 381.536 180.318 C 391.722 182.799 401.635 186.387 412.057 187.929 C 418.114 188.825 418.016 194.181 417.99 198.131 C 417.932 206.621 418.989 215.013 419.252 223.463 C 419.753 239.522 420.229 255.595 421.328 271.62 C 422.155 283.674 422.613 295.734 423.278 307.789 C 424.417 328.449 425.443 349.111 426.372 369.782 C 426.877 381.002 427.766 392.217 428.236 403.453 C 429.142 425.122 430.653 446.759 431.37 468.445 C 431.769 480.496 432.76 492.544 433.309 504.611 C 434.248 525.278 435.672 545.918 436.379 566.606 C 436.779 578.323 437.765 590.038 438.306 601.772 C 439.259 622.439 440.448 643.095 441.373 663.766 C 441.897 675.486 442.839 687.199 443.225 698.937 C 443.334 702.227 442.613 703.014 438.927 702.347 C 423.427 699.542 407.817 697.356 392.273 694.785 C 375.444 692.001 358.657 688.965 341.828 686.176 C 326.446 683.628 311.026 681.308 295.637 678.804 C 280.899 676.406 266.181 673.888 251.45 671.448 C 238.014 669.223 224.569 667.061 211.136 664.82 C 198.032 662.633 184.949 660.318 171.838 658.177 C 158.392 655.982 144.91 654.009 131.469 651.791 C 116.58 649.334 101.734 646.615 86.841 644.185 C 71.127 641.621 55.371 639.32 39.651 636.797 C 29.282 635.133 18.972 633.088 8.585 631.561 C -3.43 629.794 -15.306 627.254 -27.369 625.703 C -40.215 624.051 -52.947 621.513 -65.729 619.362 C -78.672 617.184 -91.615 615.009 -104.557 612.831 C -119.762 610.273 -134.959 607.665 -150.176 605.184 C -154.708 604.444 -159.27 603.964 -163.796 603.081 C -166.59 602.535 -166.906 601.303 -166.806 599.115 C -166.745 597.785 -166.798 596.45 -166.798 595.116 C -166.798 503.96 -166.105 412.796 -167.095 321.65 C -167.577 277.206 -167.229 232.766 -167.798 187.828 Z"/>
  <path fill="#745325" opacity="1.000000" stroke="none" d="M -183.241 47.608 C -182.897 65.319 -182.87 82.815 -182.787 100.31 C -182.775 102.849 -183.271 104.74 -186.017 105.766 C -209.052 114.379 -232.045 123.101 -255.076 131.723 C -256.393 132.216 -257.771 133.217 -259.89 132.113 C -257.47 128.808 -255.354 125.341 -252.684 122.373 C -241.681 110.144 -230.365 98.195 -219.448 85.891 C -210.97 76.335 -201.691 67.49 -194.185 57.051 C -191.786 53.715 -188.391 51.094 -185.174 47.969 C -184.498 47.478 -184.046 47.344 -183.241 47.608 Z"/>
  <path fill="#CC9141" opacity="1.000000" stroke="none" d="M 539.263 335.205 C 547.24 335.649 553.778 330.878 560.822 328.242 C 592.894 316.243 624.792 303.778 656.732 291.427 C 685.107 280.455 713.47 269.453 741.809 258.39 C 759.303 251.56 776.714 244.52 794.229 237.747 C 797.519 236.474 797.887 235.178 795.973 232.349 C 794.251 229.802 791.657 227.588 791.915 223.682 C 795.556 227.764 798.864 232.353 801.624 237.395 C 802.851 239.636 802.172 240.034 800.461 240.69 C 786.114 246.19 771.751 251.649 757.431 257.218 C 739.135 264.333 720.889 271.578 702.592 278.692 C 691.318 283.075 679.965 287.254 668.692 291.64 C 651.643 298.274 634.669 305.099 617.598 311.676 C 598.06 319.203 578.443 326.525 558.882 333.991 C 554.926 335.501 550.958 337.047 547.191 338.96 C 542.943 341.118 540.503 340.073 539.263 335.205 Z"/>
  <path fill="#CC9141" opacity="1.000000" stroke="none" d="M 778.571 203.764 C 773.887 203.016 772.726 199.139 771.915 194.682 C 774.714 196.961 776.525 200.244 778.571 203.764 Z"/>
  <path fill="#CC9141" opacity="1.000000" stroke="none" d="M 472.834 238.893 C 477.517 239.641 478.679 243.517 479.49 247.974 C 476.69 245.696 474.88 242.413 472.834 238.893 Z"/>
  <path fill="#CC9141" opacity="1.000000" stroke="none" d="M 492.834 267.893 C 497.517 268.641 498.679 272.517 499.49 276.974 C 496.69 274.696 494.88 271.413 492.834 267.893 Z"/>
  <path fill="#CC9141" opacity="1.000000" stroke="none" d="M 512.834 296.893 C 517.735 297.258 517.884 301.612 519.118 305.545 C 515.786 303.925 515.161 300.014 512.834 296.893 Z"/>
  <path fill="#CC9141" opacity="1.000000" stroke="none" d="M 758.57 174.763 C 753.669 174.399 753.521 170.044 752.287 166.111 C 755.619 167.732 756.244 171.643 758.57 174.763 Z"/>
  <path fill="#CC9141" opacity="1.000000" stroke="none" d="M 528.834 319.894 C 533.157 320.397 533.856 324.004 534.49 327.973 C 531.958 326.052 530.239 323.275 528.834 319.894 Z"/>
  <path fill="#CC9141" opacity="1.000000" stroke="none" d="M 453.834 210.894 C 458.157 211.397 458.856 215.004 459.49 218.973 C 456.958 217.052 455.239 214.275 453.834 210.894 Z"/>
  <path fill="#CC9141" opacity="1.000000" stroke="none" d="M 519.261 306.202 C 522.92 306.273 523.509 309.218 524.118 312.544 C 521.598 311.503 520.333 309.138 519.261 306.202 Z"/>
  <path fill="#CC9141" opacity="1.000000" stroke="none" d="M 752.143 165.454 C 748.472 165.382 747.898 162.418 747.273 159.092 C 749.788 160.145 751.071 162.507 752.143 165.454 Z"/>
  <path fill="#CC9141" opacity="1.000000" stroke="none" d="M 449.243 204.185 C 452.503 204.271 453.552 206.529 453.49 209.973 C 451.153 209.029 450.266 206.77 449.243 204.185 Z"/>
  <path fill="#CC9141" opacity="1.000000" stroke="none" d="M 787.144 216.456 C 783.873 216.383 782.859 214.109 782.915 210.683 C 785.243 211.625 786.14 213.868 787.144 216.456 Z"/>
  <path fill="#CC9141" opacity="1.000000" stroke="none" d="M 464.26 226.201 C 467.532 226.274 468.546 228.547 468.49 231.973 C 466.162 231.031 465.265 228.788 464.26 226.201 Z"/>
  <path fill="#CC9141" opacity="1.000000" stroke="none" d="M 767.144 187.456 C 763.873 187.383 762.859 185.109 762.915 181.683 C 765.243 182.625 766.14 184.868 767.144 187.456 Z"/>
  <path fill="#CC9141" opacity="1.000000" stroke="none" d="M 484.26 255.201 C 487.532 255.274 488.546 257.547 488.49 260.973 C 486.162 260.031 485.265 257.788 484.26 255.201 Z"/>
  <path fill="#CC9141" opacity="1.000000" stroke="none" d="M 499.828 277.894 C 503.509 277.564 503.4 280.686 504.118 283.545 C 502.177 282.429 500.083 281.028 499.828 277.894 Z"/>
  <path fill="#CC9141" opacity="1.000000" stroke="none" d="M 504.26 284.201 C 507.532 284.274 508.546 286.547 508.49 289.973 C 506.162 289.031 505.265 286.788 504.26 284.201 Z"/>
  <path fill="#CC9141" opacity="1.000000" stroke="none" d="M 524.26 313.201 C 527.532 313.274 528.546 315.547 528.49 318.973 C 526.162 318.031 525.265 315.788 524.26 313.201 Z"/>
  <path fill="#CC9141" opacity="1.000000" stroke="none" d="M 534.829 328.885 C 538.509 328.564 538.4 331.687 539.118 334.545 C 536.863 333.647 535.84 331.47 534.829 328.885 Z"/>
  <path fill="#CC9141" opacity="1.000000" stroke="none" d="M 479.829 248.885 C 483.509 248.564 483.4 251.687 484.118 254.545 C 481.863 253.647 480.84 251.47 479.829 248.885 Z"/>
  <path fill="#CC9141" opacity="1.000000" stroke="none" d="M 771.576 193.771 C 767.895 194.092 768.005 190.97 767.287 188.111 C 769.542 189.009 770.565 191.187 771.576 193.771 Z"/>
  <path fill="#CC9141" opacity="1.000000" stroke="none" d="M 791.576 222.771 C 787.895 223.092 788.005 219.97 787.287 217.111 C 789.542 218.009 790.565 220.187 791.576 222.771 Z"/>
  <path fill="#CC9141" opacity="1.000000" stroke="none" d="M 459.829 219.885 C 463.509 219.564 463.4 222.687 464.118 225.545 C 461.863 224.647 460.84 222.47 459.829 219.885 Z"/>
  <path fill="#CC9141" opacity="1.000000" stroke="none" d="M 488.828 261.882 C 492.154 261.545 492.41 264.033 492.49 266.973 C 490.531 266.101 489.749 264.138 488.828 261.882 Z"/>
  <path fill="#CC9141" opacity="1.000000" stroke="none" d="M 782.577 209.774 C 779.251 210.112 778.995 207.623 778.915 204.684 C 780.874 205.555 781.656 207.519 782.577 209.774 Z"/>
  <path fill="#CC9141" opacity="1.000000" stroke="none" d="M 508.828 290.882 C 512.154 290.545 512.41 293.033 512.49 295.973 C 510.531 295.101 509.749 293.138 508.828 290.882 Z"/>
  <path fill="#CC9141" opacity="1.000000" stroke="none" d="M 468.828 232.882 C 472.154 232.545 472.41 235.033 472.49 237.973 C 470.531 237.101 469.749 235.138 468.828 232.882 Z"/>
  <path fill="#CC9141" opacity="1.000000" stroke="none" d="M 762.577 180.774 C 759.251 181.112 758.995 178.623 758.915 175.684 C 760.874 176.555 761.656 178.519 762.577 180.774 Z"/>
  <path fill="#745325" opacity="1.000000" stroke="none" d="M -183.083 47.633 C -183.376 47.818 -183.81 47.813 -184.57 47.8 C -184.422 47.276 -183.897 47.002 -183.083 47.633 Z"/>
  <path fill="#AD7C38" opacity="1.000000" stroke="none" d="M 436.168 214.548 C 435.883 214.797 435.45 214.808 434.693 214.824 C 434.65 213.799 435.278 213.874 436.168 214.548 Z"/>
  <path fill="#332410" opacity="1.000000" stroke="none" d="M 45.254 -94.385 C 49.41 -91.29 52.87 -87.581 57.465 -85.49 C 60.311 -84.196 60.189 -81.61 60.263 -78.704 C 48.805 -79.326 37.807 -82.709 26.592 -85.039 C 13.273 -87.806 1.091 -92.741 -8.454 -102.712 C -12.803 -107.254 -16.244 -112.589 -18.724 -118.448 C -25.23 -133.823 -28.95 -149.988 -32.868 -166.157 C -38.249 -188.366 -36.777 -210.837 -36.573 -233.246 C -36.495 -241.81 -35.551 -250.493 -33.581 -258.94 C -31.004 -269.994 -25.228 -279.388 -18.296 -288.188 C -6.964 -302.575 7.282 -314.213 19.152 -328.141 C 26.089 -336.282 36.03 -341.082 45.471 -345.917 C 56.422 -351.527 67.896 -356.08 80.278 -357.667 C 82.581 -357.962 84.911 -358.044 87.663 -358.251 C 88.566 -354.063 87.073 -350.912 83.427 -348.551 C 81.506 -347.307 79.617 -345.651 78.396 -343.744 C 69.676 -330.117 55.557 -322.187 44.298 -311.249 C 27.08 -294.521 11.738 -276.597 2.88 -253.881 C 1.433 -250.169 -0.413 -246.593 -2.304 -243.077 C -6.303 -235.643 -7.206 -227.274 -9.677 -219.382 C -12.741 -209.601 -8.261 -200.362 -7.649 -190.862 C -6.351 -170.7 3.022 -153.293 9.758 -134.94 C 12.913 -126.344 17.008 -118.571 23.594 -112.157 C 24.378 -111.393 24.706 -110.16 25.307 -108.805 C 23.437 -105.931 21.526 -107.232 19.952 -108.74 C 16.258 -112.28 11.575 -114.818 9.04 -119.557 C 8.432 -120.694 7.292 -122.216 5.982 -121.57 C 4.133 -120.66 5.366 -118.828 5.968 -117.694 C 10.135 -109.838 15.522 -103.416 24.895 -101.489 C 29.942 -100.451 35.068 -99.897 40.084 -98.721 C 42.405 -98.177 44.634 -97.507 45.254 -94.385 Z"/>
  <path fill="#332410" opacity="1.000000" stroke="none" d="M 384.102 -286.519 C 376.121 -284.716 372.331 -291.318 367.061 -295.019 C 359.754 -300.151 353.278 -306.412 345.507 -310.93 C 344.996 -311.227 344.754 -311.986 344.288 -312.865 C 342.777 -325.728 351.469 -332.517 359.433 -339.561 C 362.513 -342.285 365.732 -344.962 369.508 -346.852 C 373.685 -348.943 377.222 -348.153 380.379 -344.963 C 389.78 -335.463 396.362 -316.01 388.33 -301.156 C 385.993 -296.836 383.873 -292.168 384.102 -286.519 Z"/>
  <path fill="#332410" opacity="1.000000" stroke="none" d="M 311.364 -355.372 C 310.826 -355.491 310.658 -355.516 310.512 -355.587 C 308.422 -356.603 304.489 -355.379 304.417 -358.488 C 304.35 -361.344 307.849 -362.584 310.318 -363.761 C 313.617 -365.333 313.832 -361.677 315.264 -360.317 C 316.625 -359.025 318.14 -356.817 316.828 -355.086 C 315.682 -353.575 313.505 -355.522 311.364 -355.372 Z"/>
  <path fill="#000000" opacity="1.000000" stroke="none" d="M 211.329 -312.307 C 217.055 -308.765 223.194 -306.655 228.215 -302.637 C 231.538 -299.978 232.381 -296.524 230.215 -292.939 C 227.817 -288.973 224.067 -288.165 219.816 -289.954 C 212.829 -292.896 206.649 -297.448 199.324 -299.829 C 196.408 -300.777 194.663 -300.595 192.908 -298.376 C 190.185 -294.932 186.597 -293.885 182.308 -294.121 C 177.995 -294.358 173.658 -294.119 169.333 -294.191 C 162.441 -294.307 157.709 -297.895 156.227 -304.563 C 155.567 -307.534 153.629 -307.368 151.741 -306.993 C 148.012 -306.25 144.379 -305.151 140.842 -303.626 C 137.334 -302.112 133.491 -300.987 129.872 -303.226 C 127.387 -304.762 125.887 -307.047 126.183 -310.325 C 126.537 -314.244 129.186 -316.21 132.224 -317.565 C 140.165 -321.109 148.598 -322.804 157.262 -323.129 C 162.911 -323.342 168.599 -322.839 174.226 -323.249 C 182.728 -323.87 190.117 -320.866 197.549 -317.399 C 201.858 -315.388 206.472 -314.032 211.329 -312.307 Z"/>
  <path fill="#000000" opacity="1.000000" stroke="none" d="M 26.57 -228.232 C 30.316 -228.16 33.453 -227.975 36.669 -226.514 C 47.727 -221.491 46.91 -218.296 45.833 -206.745 C 45.251 -200.509 38.626 -199.08 33.552 -197.287 C 25.944 -194.6 18.245 -192.128 10.478 -189.946 C 0.885 -187.251 -5.964 -190.396 -5.851 -201.241 C -5.723 -213.596 2.811 -226.375 14.11 -229.827 C 18.158 -231.064 22.303 -230.167 26.57 -228.232 Z"/>
  <path fill="#000000" opacity="1.000000" stroke="none" d="M 45.705 -94.075 C 38.705 -97.732 31.216 -97.975 24.098 -98.91 C 14.366 -100.189 3.503 -113.35 1.424 -121.802 C 1.03 -123.403 0.96 -125.229 2.549 -126.365 C 4.298 -127.615 5.476 -126.365 6.888 -125.334 C 11.984 -121.615 14.288 -115.259 19.83 -111.934 C 21.491 -110.938 22.718 -109.204 25.031 -108.523 C 30.267 -103.74 37.039 -103.615 42.942 -102.621 C 50.352 -101.374 57.857 -99.305 65.591 -100.15 C 75.769 -101.263 86.061 -101.36 96.105 -103.633 C 98.598 -104.198 101.282 -105.012 102.046 -101.4 C 102.701 -98.302 101.583 -96.364 98.07 -95.947 C 82.296 -94.078 66.55 -91.812 50.604 -93.874 C 49.129 -94.064 47.627 -94.039 45.705 -94.075 Z"/>
  <path fill="#332410" opacity="1.000000" stroke="none" d="M 334.475 -114.587 C 335.191 -112.947 335.471 -111.29 334.597 -110.408 C 328.133 -103.878 330.35 -92.456 321.463 -87.297 C 320.035 -86.469 319.859 -85.212 321.191 -83.589 C 323.065 -81.305 322.245 -78.85 320.321 -76.878 C 317.034 -73.508 312.89 -71.306 308.944 -68.854 C 307.783 -68.133 306.347 -68.002 305.203 -68.996 C 304.048 -69.998 303.881 -71.637 304.604 -72.658 C 306.011 -74.647 305.84 -76.52 305.358 -78.685 C 304.885 -80.815 305.99 -82.552 307.532 -83.976 C 309.966 -86.225 312.283 -88.625 314.888 -90.654 C 318.365 -93.363 320.734 -96.394 320.386 -101.13 C 320.236 -103.171 321.63 -104.836 322.894 -106.428 C 323.787 -107.551 325.555 -108.68 324.897 -110.138 C 324.084 -111.937 321.936 -110.963 320.368 -111.156 C 318.726 -111.357 317.027 -111.255 315.429 -111.618 C 313.975 -111.948 313.363 -113.215 313.465 -114.701 C 313.559 -116.05 314.451 -117.177 315.671 -116.905 C 321.803 -115.542 328.27 -117.453 334.475 -114.587 Z"/>
  <path fill="#332410" opacity="1.000000" stroke="none" d="M 154.057 22.576 C 153.029 26.922 148.681 27.742 146.649 30.809 C 145.093 33.158 144.35 34.784 148.169 34.82 C 151.176 34.848 152.647 36.312 151.992 39.205 C 151.15 42.919 148.769 41.543 146.581 40.516 C 145.989 40.238 145.322 40.088 144.673 39.967 C 137.649 38.658 136.441 36.249 139.641 29.627 C 140.429 27.998 141.487 26.493 142.498 24.981 C 143.249 23.858 143.641 22.765 142.083 22.161 C 140.324 21.48 138.494 20.936 138.369 18.673 C 138.204 15.698 137.635 12.631 139.029 9.813 C 142.42 2.955 148.848 -0.897 154.519 -5.467 C 155.568 -6.312 157.16 -6.39 158.221 -5.3 C 159.575 -3.909 159.368 -2.135 158.368 -0.695 C 156.351 2.211 153.477 4.27 150.759 6.475 C 149.215 7.728 147.521 8.907 146.32 10.451 C 142.991 14.728 143.442 15.769 148.601 17.517 C 150.997 18.328 154.164 18.423 154.057 22.576 Z"/>
  <path fill="#332410" opacity="1.000000" stroke="none" d="M 329.503 127.033 C 328.025 128.875 326.751 130.409 325.546 131.995 C 324.255 133.695 322.529 134.265 320.728 133.296 C 318.598 132.151 319.26 130.158 320.001 128.466 C 321.861 124.223 325.839 121.4 327.448 116.826 C 328.424 114.051 329.295 112.866 325.447 112.624 C 321.944 112.404 322.115 109.447 322.354 106.921 C 322.629 104.009 324.29 101.659 325.897 99.327 C 327.561 96.914 327.081 95.693 324.015 95.828 C 323.352 95.858 322.684 95.831 322.021 95.789 C 320.298 95.679 318.439 95.503 318.579 93.186 C 318.716 90.903 320.668 90.906 322.33 90.874 C 325.488 90.812 328.61 90.666 331.743 90.075 C 335.416 89.382 336.71 91.447 335.871 94.756 C 335.049 98.001 333.187 100.804 331.385 103.61 C 330.627 104.792 329.427 106.111 332.165 106.829 C 337.663 108.271 338.597 110.871 335.775 115.903 C 333.752 119.512 331.749 123.133 329.503 127.033 Z"/>
  <path fill="#332410" opacity="1.000000" stroke="none" d="M 311.883 -124.346 C 309.56 -122.347 306.963 -120.996 305.039 -123.343 C 302.996 -125.837 305.359 -128.011 307.256 -129.603 C 309.331 -131.344 310.441 -133.316 310.222 -136.047 C 310.023 -138.52 310.873 -140.591 312.803 -142.213 C 313.565 -142.853 314.479 -143.633 314.249 -144.683 C 312.982 -150.443 318.627 -153.284 319.868 -158.059 C 320.442 -160.271 323.361 -160.654 325.464 -159.686 C 327.98 -158.527 327.423 -155.943 326.861 -153.971 C 326.223 -151.735 323.905 -149.776 328.109 -148.361 C 329.806 -147.79 329.074 -145.51 327.95 -144.06 C 326.575 -142.287 324.552 -141.468 322.71 -140.359 C 321.226 -139.465 319.241 -139.049 321.887 -136.579 C 324.523 -134.117 323.591 -131.144 320.346 -129.273 C 317.625 -127.704 314.892 -126.154 311.883 -124.346 Z"/>
  <path fill="#332410" opacity="1.000000" stroke="none" d="M 583.262 590.639 C 584.418 594.934 586.934 595.225 590.173 593.746 C 593.755 592.111 596.708 592.757 598.416 596.471 C 600.167 600.277 597.74 602.417 594.774 603.923 C 588.59 607.061 582.554 610.492 576.049 613.001 C 572.518 614.363 569.884 613.752 568.129 610.441 C 566.15 606.707 568.459 604.369 571.378 602.874 C 574.499 601.276 574.671 599.339 573.483 596.429 C 571.574 591.754 570.555 587.577 563.423 587.325 C 556.98 587.097 553.925 579.916 549.975 575.168 C 549.453 574.54 549.035 573.586 550.087 573.079 C 557.914 569.304 563.5 561.001 573.58 561.683 C 575.974 561.845 578.166 560.183 580.925 558.655 C 581.753 566.855 584.564 574.403 581.524 582.231 C 580.343 585.273 582.388 587.631 583.262 590.639 Z"/>
  <path fill="#332410" opacity="1.000000" stroke="none" d="M 510.941 630.503 C 519.368 626.772 527.476 623.247 535.575 619.7 C 536.786 619.17 537.901 618.223 539.15 618.021 C 542.327 617.505 545.132 618.236 546.505 621.571 C 547.885 624.921 546.04 626.75 543.329 628.27 C 534.522 633.209 524.953 636.464 515.831 640.708 C 512.664 642.182 509.543 643.676 506.827 645.789 C 500.06 651.051 492.231 653.912 484.176 656.339 C 480.566 657.427 477.511 656.733 475.919 653.058 C 474.198 649.085 476.913 646.755 480 646.029 C 491.47 643.33 500.453 635.87 510.941 630.503 Z"/>
  <path fill="#332410" opacity="1.000000" stroke="none" d="M 479.279 612.649 C 476.5 613.806 473.954 614.167 471.856 611.831 C 469.546 609.258 470.589 606.798 472.031 604.161 C 473.605 601.282 474.619 598.1 476.144 595.191 C 477.73 592.164 480.216 591.128 483.576 592.54 C 485.999 593.558 488.566 594.233 490.986 595.258 C 495.757 597.278 496.835 602.431 492.675 605.439 C 490.167 607.253 491.016 608.356 491.889 610.192 C 493.729 614.059 495.35 618.032 497.249 621.868 C 498.434 624.26 498.483 626.705 497.925 629.122 C 497.317 631.758 495.42 633.611 492.703 633.636 C 490.234 633.658 488.167 632.058 487.663 629.59 C 486.453 623.664 482.586 618.894 480.597 612.998 C 480.315 612.786 479.936 612.512 479.936 612.512 C 479.936 612.512 479.468 612.512 479.279 612.649 Z"/>
  <path fill="#332410" opacity="1.000000" stroke="none" d="M 528.108 593.096 C 524.479 599.236 526.098 604.866 528.524 610.505 C 530.063 614.082 528.688 616.718 525.36 618.135 C 521.912 619.604 519.635 617.46 518.249 614.665 C 516.947 612.037 516.078 609.171 515.241 606.344 C 514.551 604.013 513.453 602.937 510.792 602.722 C 505.205 602.27 503.311 599.215 505.128 593.958 C 506.676 589.481 506.822 583.767 513.236 582.887 C 517.913 582.244 525.197 587.185 528.108 593.096 Z"/>
  <path fill="#AD7C38" opacity="1.000000" stroke="none" d="M 479.396 612.789 C 479.328 612.417 479.502 611.888 480.201 612.587 C 480.111 612.788 479.906 612.79 479.396 612.789 Z"/>
  <path fill="#CC9141" opacity="1.000000" stroke="none" d="M -162.798 378.828 C -162.798 362.332 -162.486 346.328 -162.849 330.339 C -164.969 236.887 -163.209 143.423 -163.795 49.967 C -163.806 48.301 -163.763 46.634 -163.774 44.968 C -163.795 41.786 -162.399 40.967 -159.324 41.786 C -140.832 46.712 -122.313 51.539 -103.792 56.356 C -81.073 62.266 -58.328 68.076 -35.623 74.038 C -20.168 78.096 -4.78 82.405 10.669 86.485 C 25.463 90.392 40.313 94.09 55.11 97.989 C 70.4 102.017 85.639 106.236 100.929 110.264 C 116.048 114.248 131.217 118.04 146.335 122.024 C 163.075 126.436 179.767 131.029 196.506 135.441 C 229.502 144.138 262.526 152.73 295.521 161.432 C 323.366 168.776 351.185 176.223 379.02 183.608 C 389.16 186.299 399.277 189.095 409.48 191.523 C 412.89 192.334 414.121 193.922 414.236 197.303 C 414.807 214.09 415.28 230.887 416.285 247.65 C 417.859 273.874 419.104 300.11 420.35 326.35 C 421.256 345.445 422.312 364.535 423.3 383.628 C 424.692 410.526 426.087 437.423 427.365 464.328 C 428.272 483.422 429.239 502.519 430.319 521.605 C 431.802 547.833 433.145 574.065 434.275 600.31 C 435.119 619.909 436.204 639.498 437.247 659.088 C 437.83 670.042 438.688 680.984 439.139 691.943 C 439.369 697.517 438.317 698.161 433.063 697.298 C 393.472 690.801 353.872 684.364 314.288 677.827 C 277.16 671.695 240.06 665.402 202.929 659.293 C 152.987 651.077 103.024 642.991 53.077 634.804 C 28.434 630.765 3.807 626.619 -20.828 622.532 C -53.841 617.055 -86.85 611.558 -119.871 606.132 C -132.025 604.135 -144.18 602.107 -156.39 600.514 C -161.414 599.858 -162.91 597.787 -162.898 592.783 C -162.746 527.297 -162.797 461.811 -162.798 396.324 C -162.798 390.659 -162.798 384.994 -162.798 378.828 Z"/>
  <path fill="#332410" opacity="1.000000" stroke="none" d="M 37.948 -209.546 C 34.903 -205.821 30.72 -204.922 26.844 -203.59 C 20.89 -201.545 14.843 -199.767 8.817 -197.937 C 3.723 -196.39 0.715 -199.034 1.491 -204.302 C 2.324 -209.956 7.414 -214.945 13.147 -216.333 C 16.322 -217.103 19.424 -218.386 22.379 -219.811 C 27.303 -222.184 31.522 -220.089 35.513 -217.793 C 38.38 -216.143 40.174 -213.447 37.948 -209.546 Z"/>
  <path fill="#AD7C38" opacity="1.000000" stroke="none" d="M 577.014 570.714 C 578.163 570.903 579.03 570.93 579.419 572.312 C 576.354 571.852 573.579 571.177 570.592 569.084 C 573.217 568.955 574.925 569.895 577.014 570.714 Z"/>
  <path fill="#332410" opacity="1.000000" stroke="none" d="M -64.457 568.087 C -64.807 567.385 -64.97 567.13 -65.465 566.866 C -70.101 563.783 -70.622 558.962 -70.873 554.383 C -72.331 527.859 -73.253 501.316 -73.014 474.742 C -72.967 469.564 -73.811 468.497 -78.689 468.817 C -84.973 469.228 -91.081 467.771 -97.304 467.667 C -99.911 467.624 -102.517 466.929 -104.449 464.092 C -104.807 463.385 -104.97 463.13 -105.465 462.866 C -109.654 459.804 -111.022 455.809 -109.781 451.101 C -108.539 446.394 -104.097 443.327 -98.442 442.869 C -91.232 442.285 -84.163 444.357 -76.932 443.92 C -71.387 443.585 -71.526 443.269 -71.23 437.601 C -70.794 429.237 -71.088 420.858 -70.194 412.49 C -69.187 403.061 -68.7 393.583 -66.741 384.271 C -64.877 375.411 -61.976 366.836 -56.284 359.795 C -45.756 346.776 -31.523 345.581 -16.774 353.532 C -14.074 354.987 -10.903 356.142 -9.053 359.55 C -6.394 362.489 -3.948 365.035 -1.207 367.726 C 1.112 368.713 1.923 370.561 2.973 372.637 C 3.143 372.922 3.174 372.857 3.141 372.872 C 10.018 379.317 13.278 387.645 14.855 396.627 C 15.635 401.068 12.211 405.621 7.786 407.563 C 3.599 409.401 -0.137 409.065 -3.488 405.047 C -3.807 404.386 -3.97 404.13 -4.465 403.866 C -7.251 402.659 -7.864 400.194 -8.623 397.886 C -10.066 393.495 -12.019 389.351 -14.552 385.058 C -14.738 384.734 -14.769 384.799 -14.737 384.784 C -17.219 382.913 -19.316 380.632 -21.531 377.995 C -21.74 377.731 -21.77 377.795 -21.737 377.781 C -24.293 376.49 -26.901 375.335 -29.676 374.424 C -33.532 373.159 -35.867 374.489 -37.685 377.696 C -40.26 382.238 -41.13 387.209 -42.228 392.276 C -44.545 402.974 -44.725 413.807 -45.641 424.597 C -46.067 429.611 -45.847 434.655 -46.167 439.687 C -46.482 444.639 -45.231 445.727 -40.291 445.822 C -36.831 445.889 -33.371 445.909 -29.911 445.952 C -26.424 445.995 -23.266 446.979 -21.057 450.55 C -20.857 450.922 -20.826 450.857 -20.859 450.872 C -16.838 454.517 -15.388 458.747 -16.999 462.966 C -19.235 468.822 -24.229 470.916 -29.874 471.616 C -33.522 472.068 -37.194 471.971 -40.903 471.089 C -45.478 470.002 -47.948 472.002 -47.829 476.686 C -47.264 498.942 -49.1 521.256 -45.988 543.46 C -45.226 548.896 -45.459 554.517 -45.942 560.003 C -46.388 565.075 -48.878 569.055 -54.074 570.862 C -58.004 572.23 -61.377 571.701 -64.457 568.087 Z"/>
  <path fill="#332410" opacity="1.000000" stroke="none" d="M 3.523 475.059 C 3.193 474.386 3.03 474.13 2.535 473.866 C -4.602 467.615 -3.529 458.862 4.78 454.933 C 12.972 451.06 21.894 451.165 30.653 450.929 C 47.316 450.479 63.434 453.059 78.59 460.459 C 80.109 461.2 81.62 461.724 82.863 463.572 C 84.611 465.494 86.061 467.044 87.8 468.733 C 95.355 474.999 96.445 483.762 97.151 492.237 C 97.914 501.386 96.583 510.525 94.854 519.631 C 92.915 529.845 91.405 540.226 92.094 550.688 C 92.316 554.068 93.34 557.336 95.462 560.394 C 101.122 568.551 98.762 576.356 90.273 579.063 C 86.531 580.256 83.372 579.478 80.535 576.074 C 79.451 574.82 78.658 573.928 77.591 572.91 C 74.28 568.794 69.862 568.595 65.464 568.65 C 52.065 568.817 39.069 566.076 26.014 563.566 C 19.064 562.23 12.26 560.805 6.318 556.642 C 5.377 555.983 4.577 555.289 3.544 554.084 C 3.193 553.386 3.03 553.13 2.535 552.866 C -3.356 547.823 -5.716 541.321 -6.735 534.052 C -9.762 512.446 10.356 501.616 25.543 499.806 C 36.697 498.476 47.942 500.005 58.995 497.866 C 62.014 497.282 64.749 499.037 67.864 498.702 C 70.824 498.384 71.918 497.594 72.065 494.531 C 72.577 483.827 71.881 482.443 61.24 479.532 C 45.168 475.134 28.926 474.557 12.618 478.356 C 9.071 479.182 6.101 478.299 3.523 475.059 Z"/>
  <path fill="#332410" opacity="1.000000" stroke="none" d="M 12.515 209.051 C 12.193 208.386 12.03 208.13 11.535 207.866 C 4.222 201.551 5.702 192.331 14.288 188.831 C 21.465 185.905 28.708 186.777 36.109 187.765 C 50.494 189.685 63.639 194.72 75.818 202.469 C 77.329 203.431 78.799 204.481 79.926 206.514 C 80.143 206.922 80.174 206.857 80.141 206.872 C 87.256 213.457 89.268 222.149 89.894 231.278 C 90.611 241.736 89.336 252.104 88.606 262.536 C 87.52 278.065 86.852 293.834 91.09 309.236 C 93.031 316.288 90.238 321.494 83.958 323.849 C 80.015 325.327 76.658 324.623 73.545 321.088 C 73.193 320.386 73.03 320.13 72.535 319.866 C 71.428 319.322 70.433 318.863 70.107 317.88 C 68.47 312.935 65.342 312.774 60.549 313.428 C 51.634 314.644 42.72 317.026 33.589 315.757 C 22.859 314.266 12.084 312.828 2.869 306.355 C 1.689 305.527 0.497 304.692 -0.489 303.045 C -1.226 302.144 -1.697 301.575 -2.425 300.896 C -10.783 295.059 -11.936 280.915 -6.346 270.974 C -2.509 264.15 3.491 259.748 10.449 256.588 C 26.22 249.426 42.846 245.672 60.097 244.816 C 63.7 244.637 65.455 243.712 65.217 239.863 C 64.996 236.287 64.903 232.654 65.118 229.108 C 65.44 223.774 62.755 220.964 58.323 219.306 C 49.283 215.924 40.131 212.949 30.431 212.004 C 27.799 211.748 25.297 212.001 22.736 212.472 C 18.928 213.173 15.387 212.72 12.515 209.051 Z"/>
  <path fill="#332410" opacity="1.000000" stroke="none" d="M 162.506 535.037 C 160.463 532.832 158.682 530.951 156.609 528.927 C 154.293 527.943 153.482 526.096 152.432 524.02 C 152.262 523.734 152.231 523.799 152.264 523.784 C 145.329 517.036 141.58 501.148 147.036 492.931 C 152.067 485.357 158.08 479.807 166.658 477.065 C 182.589 471.974 198.697 470.33 215.022 475.077 C 218.03 475.951 220.93 477.273 222.933 480.528 C 223.143 480.922 223.174 480.857 223.141 480.872 C 227.142 484.239 229.166 488.586 228.358 493.734 C 227.613 498.478 224.154 500.991 219.68 502.323 C 216.536 503.258 213.854 502.339 211.53 500.428 C 209.12 498.446 206.502 498.007 203.472 497.899 C 195.201 497.604 187.008 497.766 178.905 499.685 C 177.277 500.071 175.728 500.547 174.25 501.309 C 168.492 504.275 167.856 507.306 171.901 512.477 C 172.412 513.131 172.848 513.843 173.341 514.962 C 173.404 515.368 173.483 515.579 173.59 515.613 C 177.807 517.034 181.048 519.995 184.993 521.751 C 195.94 526.625 207.4 530.277 218.166 535.521 C 224.485 538.6 230.941 541.707 235.943 547.55 C 236.143 547.922 236.174 547.857 236.141 547.872 C 238.149 548.719 238.923 550.595 239.985 552.66 C 240.211 553.271 240.375 553.526 240.869 553.791 C 247.653 559.712 249.962 573.258 246.039 583.115 C 240.612 596.75 231.247 603.855 215.932 605.147 C 205.074 606.062 194.696 604.073 184.087 603.935 C 168.62 603.734 153.194 602.614 137.837 600.666 C 135.156 600.326 132.532 599.918 130.541 597.084 C 129.451 595.82 128.658 594.928 127.591 593.91 C 122.707 589.768 121.527 584.526 124.173 579.826 C 126.755 575.243 132.342 572.997 137.596 574.865 C 144.04 577.157 150.859 577.179 157.43 577.58 C 164.929 578.038 172.467 578.713 180.019 578.725 C 190.904 578.743 201.724 580.44 212.654 579.865 C 220.358 579.46 224.335 574.976 222.822 567.474 C 222.677 566.755 222.543 565.893 222.081 564.749 C 222.015 564.316 221.932 564.091 221.819 564.049 C 217.994 563.406 215.295 560.727 212.063 559.143 C 197.15 551.83 180.656 547.998 166.746 538.508 C 165.34 537.548 163.642 536.984 162.506 535.037 Z"/>
  <path fill="#332410" opacity="1.000000" stroke="none" d="M 217.522 424.059 C 217.193 423.385 217.03 423.13 216.535 422.866 C 211.886 419.327 210.878 414.323 210.809 409.236 C 210.564 391.264 210.72 373.311 209.596 355.33 C 208.602 339.438 207.314 323.621 205.365 307.825 C 203.205 290.323 202.712 272.687 203.302 255.096 C 203.655 244.593 214.886 239.284 222.308 246.034 C 223.959 247.536 226.112 248.127 228.013 247.85 C 233.654 247.027 239.467 247.78 244.794 248.327 C 255.371 249.412 265.987 252.443 273.908 261.484 C 274.143 261.922 274.174 261.858 274.141 261.873 C 280.79 268.262 283.774 276.712 286.062 285.184 C 289.521 297.992 285.982 309.262 276.323 318.489 C 275.237 319.527 274.059 320.454 272.668 321.057 C 267.642 323.233 262.781 325.708 257.993 328.389 C 252.388 331.526 245.841 330.478 239.778 331.704 C 233.411 332.992 233.16 333.442 233.507 339.97 C 234.531 359.258 236.796 378.486 235.801 397.879 C 235.517 403.399 236.317 409.015 236.099 414.599 C 235.846 421.049 233.18 424.953 227.815 426.905 C 223.889 428.334 220.515 427.74 217.522 424.059 Z"/>
  <path fill="#332410" opacity="1.000000" stroke="none" d="M 310.531 627.07 C 310.193 626.385 310.03 626.13 309.535 625.866 C 305.479 623.383 304.164 619.215 304.55 615.456 C 305.032 610.761 303.76 606.222 304.309 601.675 C 305.799 589.343 304.258 577.06 303.967 564.763 C 303.665 552.024 302.273 539.336 301.832 526.589 C 301.589 519.571 302.114 512.566 301.614 505.539 C 301.303 501.164 299.888 499.685 295.363 498.599 C 285.485 496.228 275.38 494.353 266.019 490.119 C 264.761 489.55 263.54 488.736 262.532 487.071 C 261.774 486.144 261.303 485.575 260.575 484.896 C 255.686 480.786 254.512 475.635 257.153 470.903 C 259.875 466.026 265.239 463.951 270.893 466.137 C 278.763 469.179 286.926 471.111 295.05 473.231 C 299.799 474.47 300.989 473.461 300.645 468.52 C 299.869 457.348 299.899 446.159 300.759 435.008 C 301.176 429.597 302.87 424.5 308.614 422.095 C 313.593 420.011 316.894 420.837 320.942 425.548 C 321.143 425.922 321.174 425.857 321.141 425.873 C 326.432 429.879 326.504 435.825 326.107 441.426 C 325.302 452.794 325.846 464.111 326.229 475.452 C 326.323 478.243 327.289 479.479 330.26 479.934 C 337.182 480.995 344.195 482.044 350.887 483.887 C 356.686 485.484 363.397 485.852 367.939 491.542 C 368.143 491.922 368.174 491.857 368.141 491.873 C 372.731 495.983 373.881 500.833 371.351 505.56 C 368.918 510.108 362.896 512.944 357.559 511.402 C 349.384 509.039 341.092 507.214 332.797 505.395 C 327.853 504.311 327.034 505.445 327.049 510.575 C 327.078 520.889 327.251 531.206 327.419 541.513 C 327.578 551.277 329.218 560.999 329.391 570.78 C 329.59 582.037 331.087 593.286 329.636 604.562 C 328.937 609.998 331.009 615.512 328.85 620.989 C 327.312 624.888 325.495 628.159 321.352 629.732 C 317.28 631.278 313.733 630.924 310.531 627.07 Z"/>
  <path fill="#332410" opacity="1.000000" stroke="none" d="M -107.474 282.068 C -107.807 281.385 -107.97 281.13 -108.465 280.866 C -110.71 279.933 -111.527 278.083 -112.579 275.997 C -114.537 273.832 -116.318 271.951 -118.391 269.927 C -121.044 268.572 -122.303 266.392 -123.369 264.149 C -131.425 247.199 -132.021 230.097 -125.306 212.436 C -119.183 196.334 -106.885 187.195 -91.733 181.327 C -77.841 175.946 -63.583 171.792 -48.313 172.875 C -43.503 173.217 -39.296 174.18 -36.047 178.564 C -35.789 179.27 -35.625 179.526 -35.131 179.79 C -30.334 183.804 -29.126 188.929 -31.661 193.662 C -34.173 198.349 -40.154 200.879 -45.347 198.943 C -50.066 197.184 -54.775 197.468 -59.41 198.446 C -68.735 200.413 -78.097 202.192 -86.732 206.716 C -97.15 212.175 -103.384 220.577 -104.588 232.052 C -105.478 240.543 -105.486 249.259 -101.041 257.586 C -99.059 259.824 -97.277 261.706 -95.204 263.729 C -88.507 266.989 -83.129 271.842 -76.198 274.189 C -69.332 276.513 -62.443 278.447 -55.226 278.764 C -51.585 278.924 -48.023 279.576 -44.476 280.109 C -42.148 280.459 -39.479 281.469 -38.068 284.526 C -37.857 284.922 -37.826 284.857 -37.859 284.872 C -33.912 287.894 -32.579 291.921 -33.819 296.634 C -35.021 301.206 -39.574 304.846 -45.059 304.649 C -58.1 304.178 -70.936 302.422 -83.181 297.338 C -92.045 293.658 -99.958 288.634 -107.474 282.068 Z"/>
  <path fill="#332410" opacity="1.000000" stroke="none" d="M 126.547 339.087 C 126.193 338.386 126.03 338.13 125.535 337.866 C 120.306 334.098 119.63 328.175 118.99 322.957 C 115.032 290.696 111.865 258.35 111.165 225.818 C 111.073 221.54 112.703 217.78 115.185 214.476 C 119.428 208.828 126.479 208.724 131.901 214.476 C 132.143 214.922 132.174 214.857 132.141 214.872 C 136.15 217.8 136.876 221.842 136.361 226.501 C 135.72 232.3 137.399 233.792 143.052 232.741 C 155.808 230.37 168.615 230.015 181.459 231.804 C 185.472 232.363 189.28 233.565 191.947 237.557 C 192.143 237.922 192.174 237.857 192.141 237.872 C 196.607 241.936 197.785 246.509 195.523 251.145 C 193.196 255.914 188.25 258.314 182.595 257.122 C 171.653 254.817 160.69 255.82 149.771 256.988 C 147.129 257.271 144.436 258.695 141.978 260.065 C 139.332 261.541 137.998 263.616 138.325 266.925 C 140.294 286.839 140.759 306.902 144.458 326.645 C 145.858 334.119 143.302 339.289 137.4 341.698 C 133.371 343.343 129.818 342.792 126.547 339.087 Z"/>
  <path fill="#332410" opacity="1.000000" stroke="none" d="M 319.553 404.097 C 319.193 403.385 319.03 403.13 318.535 402.866 C 314.544 400.177 313.287 396.2 313.694 392.065 C 314.177 387.16 314.244 382.28 314.135 377.393 C 313.734 359.504 316.634 341.861 317.821 324.095 C 318.335 316.413 316.966 308.629 317.139 300.858 C 317.207 297.832 317.563 294.947 318.983 292.263 C 322.752 285.141 331.095 284.117 336.915 290.496 C 337.143 290.922 337.174 290.857 337.141 290.873 C 341.244 293.718 341.87 298.166 342.112 302.563 C 343.202 322.414 342.438 342.173 339.671 361.904 C 338.336 371.427 339.61 381.154 339.188 390.76 C 338.903 397.241 337.519 403.721 330.361 406.664 C 326.377 408.302 322.809 407.866 319.553 404.097 Z"/>
  <path fill="#CC9141" opacity="1.000000" stroke="none" d="M 274.117 261.551 C 266.843 256.763 259.041 252.799 250.108 251.249 C 243.041 250.023 235.907 250.197 228.797 249.846 C 226.663 249.74 224.743 249.819 222.852 248.132 C 219.482 245.125 215.574 244.201 211.101 246.33 C 206.671 248.438 205.307 252.42 205.347 256.465 C 205.45 266.887 205.142 277.295 205.867 287.76 C 206.561 297.786 206.57 307.933 208.355 317.802 C 210.86 331.652 211.278 345.668 211.844 359.577 C 212.328 371.472 213.664 383.367 212.664 395.466 C 211.944 404.165 210.792 413.783 216.15 422.458 C 212.037 421.078 208.514 413.469 208.616 407.333 C 208.919 389.098 208.912 370.883 207.48 352.656 C 206.517 340.399 206.24 328.115 204.45 315.896 C 201.527 295.944 200.967 275.814 201.224 255.667 C 201.321 248.016 204.587 243.334 210.727 241.502 C 214.525 240.368 218.239 240.796 221.142 243.243 C 223.858 245.531 226.722 245.696 229.924 245.882 C 238.644 246.388 247.41 245.81 256.001 248.623 C 261.847 250.538 266.91 253.459 271.807 256.938 C 273.282 257.987 273.953 259.43 274.117 261.551 Z"/>
  <path fill="#CC9141" opacity="1.000000" stroke="none" d="M 217.278 424.086 C 220.213 423.963 222.532 426.219 226.152 425.126 C 231.147 423.618 233.724 420.023 234.115 414.002 C 234.638 405.958 234.02 397.882 234.039 389.817 C 234.082 372.111 232.981 354.415 231.186 336.787 C 230.74 332.409 231.957 329.785 236.755 329.837 C 249.499 329.976 260.804 325.181 271.471 318.987 C 280.358 313.826 284.178 305.135 285.182 295.173 C 286.189 285.179 282.055 276.526 277.738 267.967 C 276.784 266.074 275.532 264.33 274.263 262.203 C 275.504 261.978 276.745 262.41 277.497 263.672 C 283.574 273.864 289.193 284.122 289.288 296.574 C 289.364 306.608 280.489 322.6 268.904 325.254 C 264.175 326.337 260.832 330.422 256.022 331.705 C 250.972 333.052 245.788 332.829 240.697 333.65 C 236.147 334.384 235.159 336.461 235.402 340.775 C 236.482 359.986 238.848 379.142 237.735 398.459 C 237.392 404.41 238.247 410.422 238.095 416.394 C 237.914 423.522 233.289 428.852 226.74 429.522 C 222.705 429.935 218.545 429.684 217.278 424.086 Z"/>
  <path fill="#CC9141" opacity="1.000000" stroke="none" d="M 3.278 475.087 C 9.95 478.641 16.854 475.224 23.375 474.49 C 35.952 473.075 48.014 474.492 60.115 477.28 C 61.544 477.609 62.993 477.938 64.351 478.475 C 73.116 481.947 76.875 490.028 74.166 499.113 C 73.428 501.587 71.519 500.924 70.121 500.761 C 60.892 499.68 51.682 500.878 42.471 500.936 C 32.63 500.998 22.954 501.779 13.438 505.54 C -5.931 513.194 -9.542 533.531 -0.182 548.889 C 0.5 550.007 1.274 551.069 2.161 552.471 C 1.125 552.687 -0.044 552.429 -0.814 551.454 C -8.904 541.216 -12.948 524.32 -3.882 512.577 C 2.945 503.736 12.272 499.596 22.99 497.891 C 34.865 496.002 46.937 497.766 58.813 495.903 C 59.775 495.753 60.799 496.027 61.795 496.06 C 64.921 496.162 69.085 498.978 70.1 493.241 C 71.318 486.354 69.545 483.544 63.542 481.98 C 47.052 477.683 30.499 476.365 13.72 480.37 C 8.37 481.647 5.192 479.916 3.278 475.087 Z"/>
  <path fill="#CC9141" opacity="1.000000" stroke="none" d="M -8.869 359.571 C -13.614 357.409 -18.227 354.646 -23.289 352.575 C -38.047 346.536 -52.861 355.271 -58.684 367.653 C -65.242 381.599 -66.603 396.58 -68.063 411.7 C -68.874 420.094 -67.577 428.585 -69.702 436.881 C -70.314 439.27 -68.485 441.595 -68.726 444.189 C -68.94 446.491 -69.9 447.079 -71.909 446.697 C -79.721 445.212 -87.678 445.576 -95.557 444.909 C -105.066 444.104 -112.481 452.679 -105.848 462.46 C -111.107 461.285 -112.03 456.44 -112.195 452.204 C -112.368 447.739 -109.626 444.001 -105.166 442.194 C -100.04 440.118 -94.67 440.5 -89.402 441.279 C -85.241 441.895 -81.106 441.767 -76.953 441.789 C -74.025 441.805 -73.052 440.506 -73.098 437.428 C -73.282 425.314 -72.64 413.219 -71.361 401.166 C -70.397 392.079 -69.693 382.892 -66.373 374.298 C -63.146 365.945 -59.92 357.43 -52.017 352.04 C -39.951 343.81 -27.799 345.424 -15.837 352.127 C -12.993 353.72 -9.006 354.706 -8.869 359.571 Z"/>
  <path fill="#CC9141" opacity="1.000000" stroke="none" d="M 310.278 627.087 C 313.086 626.892 315.28 629.433 318.675 628.187 C 324.717 625.97 328.17 621.13 328.121 612.678 C 328.098 608.83 327.236 605.038 327.789 601.099 C 329.056 592.083 327.897 583 327.909 573.953 C 327.922 564.421 327.084 554.826 325.765 545.377 C 325.012 539.981 326.043 534.713 325.343 529.34 C 324.297 521.293 325.602 513.106 324.475 504.965 C 323.955 501.208 327.771 502.699 329.244 502.989 C 337.116 504.539 345.107 505.582 352.783 508.073 C 355.573 508.979 358.372 510.287 361.411 509.658 C 369.44 507.998 373.94 500.612 368.271 492.212 C 373.326 493.005 373.802 497.672 374.604 501.511 C 375.408 505.363 373.028 508.554 369.983 510.888 C 365.827 514.072 361.112 514.476 356.209 513.053 C 348.525 510.824 340.758 509.007 332.871 507.626 C 329.73 507.077 328.909 507.631 329.002 511.028 C 329.414 525.97 328.921 540.948 330.265 555.852 C 331.385 568.265 331.7 580.704 332.197 593.14 C 332.495 600.595 331.383 607.995 331.953 615.52 C 332.607 624.175 327.576 630.795 320.733 632.396 C 315.804 633.549 312.151 631.819 310.278 627.087 Z"/>
  <path fill="#CC9141" opacity="1.000000" stroke="none" d="M 12.278 209.087 C 16.261 210.19 20.23 210.249 24.605 210.111 C 37.915 209.69 50.511 213.291 62.209 219.815 C 65.607 221.71 67.024 224.767 67.142 228.364 C 67.332 234.184 67.195 240.015 67.195 245.842 C 67.195 247.182 67.378 248.581 65.178 247.883 C 56.36 245.082 47.96 248.383 39.472 249.858 C 27.938 251.862 17.282 256.196 6.721 261.349 C -6.091 267.602 -13.222 288.908 -2.841 300.469 C -9.734 298.036 -11.011 291.538 -11.614 285.395 C -12.919 272.109 -4.754 260.489 9.122 254.435 C 24.844 247.576 41.255 243.631 58.389 242.863 C 61.726 242.713 63.376 241.468 63.187 238.074 C 63.178 237.909 63.186 237.741 63.193 237.575 C 63.823 222.149 63.403 221.304 45.379 216.785 C 38.059 214.949 30.601 213.137 22.723 214.559 C 18.622 215.299 13.77 215.227 12.278 209.087 Z"/>
  <path fill="#CC9141" opacity="1.000000" stroke="none" d="M 337.118 290.553 C 326.939 283.924 318.727 291.495 319.189 301.326 C 319.522 308.419 320.191 315.674 319.803 322.583 C 319.166 333.938 319.217 345.487 316.682 356.697 C 316.041 359.532 316.371 362.304 316.212 365.102 C 315.66 374.839 317.151 384.618 315.361 394.36 C 314.865 397.055 316.523 399.725 318.15 402.457 C 314.293 401.181 310.912 395.581 311.632 390.746 C 312.325 386.088 312.293 381.443 312.164 376.802 C 311.661 358.629 314.435 340.697 315.819 322.661 C 316.26 316.915 315.46 311.071 315.199 305.272 C 314.76 295.521 315.06 286.172 327.699 283.406 C 325.866 281.048 323.207 280.158 323.273 277.071 C 324.316 274.845 326.03 275.389 327.678 275.464 C 335.822 275.831 340.803 270.246 339.509 262.221 C 339.298 260.918 338.776 259.634 339.857 258.133 C 345.331 259.95 348.207 267.056 345.781 272.13 C 343.717 276.449 340.419 279.579 336.089 281.626 C 334.806 282.232 333.234 282.359 332.093 283.939 C 334.266 285.709 337.201 286.839 337.118 290.553 Z"/>
  <path fill="#CC9141" opacity="1.000000" stroke="none" d="M -35.869 178.569 C -44.04 173.433 -53.102 174.21 -62.139 175.56 C -71.233 176.919 -80.08 179.356 -88.646 182.736 C -100.572 187.443 -111.859 193.218 -118.87 204.553 C -123.652 212.283 -126.764 220.958 -127.614 229.938 C -128.923 243.766 -127.239 257.269 -118.839 269.471 C -121.69 269.669 -122.851 267.358 -124.082 265.184 C -138.442 239.826 -132.869 207.288 -110.838 188.479 C -105.974 184.327 -99.829 182.14 -94.096 179.77 C -79.423 173.705 -64.154 169.732 -47.975 170.815 C -41.053 171.278 -37.488 173.282 -35.869 178.569 Z"/>
  <path fill="#CC9141" opacity="1.000000" stroke="none" d="M 126.278 339.086 C 129.481 339.439 132.39 341.549 136.113 339.856 C 140.425 337.896 144.069 332.617 143.083 328.027 C 140.068 313.99 139.376 299.711 137.942 285.491 C 137.316 279.284 138.074 272.966 136.314 266.81 C 135.012 262.259 136.93 259.404 141.679 257.526 C 153.308 252.927 165.238 253.515 177.252 254.363 C 180.146 254.567 183.112 255.755 185.881 255.355 C 193.196 254.299 198.005 246.62 192.271 238.212 C 196.475 239.623 199.689 245.967 198.457 250.416 C 196.85 256.217 190.688 260.653 184.688 259.52 C 174.604 257.615 164.596 257.442 154.424 258.676 C 150.682 259.13 147.355 260.425 143.946 261.638 C 140.517 262.857 139.95 265.828 140.293 269.028 C 142.487 289.49 142.897 310.128 146.746 330.434 C 148.399 339.153 139.156 346.825 130.818 344.16 C 128.443 343.401 126.573 342.217 126.278 339.086 Z"/>
  <path fill="#CC9141" opacity="1.000000" stroke="none" d="M -64.722 568.086 C -62.036 567.92 -59.887 570.294 -56.781 569.385 C -50.747 567.621 -47.976 564.237 -47.814 557.478 C -47.571 547.374 -48.64 537.363 -49.547 527.305 C -50.44 517.388 -49.783 507.33 -49.796 497.335 C -49.805 490.004 -49.818 482.673 -49.791 475.343 C -49.768 469.095 -48.893 468.151 -42.384 468.908 C -37.391 469.489 -32.537 470.179 -27.502 468.914 C -19.808 466.979 -15.006 459.492 -20.729 451.212 C -15.682 451.996 -15.204 456.656 -14.402 460.486 C -13.599 464.319 -15.956 467.456 -18.998 469.835 C -24.866 474.422 -31.675 474.321 -38.533 473.538 C -45.147 472.782 -45.771 473.168 -45.785 479.793 C -45.818 495.253 -46.106 510.721 -45.69 526.17 C -45.391 537.265 -43.3 548.28 -43.797 559.446 C -44.136 567.063 -48.084 572.467 -54.789 573.442 C -58.997 574.055 -63.306 573.911 -64.722 568.086 Z"/>
  <path fill="#CC9141" opacity="1.000000" stroke="none" d="M 262.278 487.085 C 273.938 491.539 286.1 494.695 298.505 497.055 C 302.264 497.771 303.989 499.041 303.561 504.185 C 302.731 514.147 304.128 524.275 304.192 534.336 C 304.28 548.165 306.629 561.862 306.27 575.716 C 306.159 580.015 307.106 584.336 307.107 588.646 C 307.107 593.67 305.953 598.761 306.47 603.701 C 307.217 610.844 304.424 618.448 309.149 625.457 C 305.054 624.089 302.378 618.141 302.44 612.775 C 302.66 593.764 303.059 574.755 301.579 555.748 C 300.486 541.715 299.369 527.653 299.928 513.538 C 300.039 510.736 299.918 507.919 299.79 505.115 C 299.665 502.352 297.955 501.434 295.385 500.642 C 285.738 497.67 275.493 496.716 266.364 491.934 C 264.304 490.855 262.563 489.959 262.278 487.085 Z"/>
  <path fill="#CC9141" opacity="1.000000" stroke="none" d="M 130.278 597.087 C 139.302 600.303 149.008 599.459 158.395 600.789 C 172.11 602.733 185.996 601.888 199.82 603.33 C 210.76 604.47 222.615 604.527 232.838 597.647 C 239.767 592.984 242.507 585.849 245.064 578.623 C 248.089 570.075 245.167 562.177 241.253 554.197 C 242.694 553.964 243.991 554.609 244.746 556.075 C 249.972 566.224 251.91 576.075 246.784 587.438 C 239.376 603.857 225.768 607.448 210.161 607.714 C 196.398 607.949 182.746 605.54 168.952 605.331 C 158.703 605.175 148.466 603.758 138.239 602.756 C 134.77 602.416 131.074 602.029 130.278 597.087 Z"/>
  <path fill="#CC9141" opacity="1.000000" stroke="none" d="M -100.849 257.525 C -105.382 255.183 -106.034 250.131 -106.465 245.87 C -107.599 234.663 -107.351 223.456 -99.832 213.873 C -95.561 208.429 -89.724 205.328 -83.552 202.806 C -73.165 198.563 -62.442 195.699 -51.091 195.814 C -49.261 195.832 -47.517 195.946 -45.792 196.724 C -41.678 198.578 -37.89 197.272 -35.042 194.375 C -32.008 191.287 -31.146 187.285 -33.133 183.089 C -33.553 182.203 -34.096 181.375 -34.747 180.196 C -30.551 181.605 -27.324 187.924 -28.529 192.368 C -30.149 198.337 -36.716 202.688 -42.73 201.501 C -61.166 197.865 -77.339 203.354 -92.401 213.547 C -97.245 216.825 -99.461 221.789 -101.083 227.093 C -104.144 237.107 -102.961 247.117 -100.849 257.525 Z"/>
  <path fill="#CC9141" opacity="1.000000" stroke="none" d="M 132.117 214.547 C 121.156 207.699 113.78 215.981 113.343 225.585 C 112.651 240.776 113.942 255.92 115.993 271.016 C 116.765 276.704 116.685 282.539 117.091 288.308 C 118.073 302.253 119.333 316.137 122.208 329.837 C 122.748 332.407 123.468 334.923 125.15 337.458 C 121.024 337.32 120.515 333.548 119.389 330.603 C 116.754 323.714 116.26 316.336 115.306 309.113 C 113.503 295.467 113.096 281.681 111.808 267.988 C 110.441 253.443 108.899 238.934 109.229 224.303 C 109.42 215.857 114.339 209.335 121.265 208.122 C 126.591 207.19 130.528 209.39 132.117 214.547 Z"/>
  <path fill="#CC9141" opacity="1.000000" stroke="none" d="M 319.278 404.086 C 330.586 407.432 336.965 402.696 337.173 390.21 C 337.317 381.553 336.735 372.861 337.314 364.24 C 338.145 351.85 341.04 339.467 340.631 327.161 C 340.239 315.331 342.801 302.999 337.276 291.219 C 343.131 292.759 343.726 298.233 344.001 302.95 C 345.096 321.708 345.089 340.49 342.13 359.122 C 340.443 369.744 341.507 380.403 341.242 391.041 C 341.118 396.017 340.142 400.695 337.184 404.697 C 332.106 411.566 322.222 411.356 319.278 404.086 Z"/>
  <path fill="#CC9141" opacity="1.000000" stroke="none" d="M 321.117 425.547 C 316.738 422.873 311.867 421.81 307.577 425.312 C 303.678 428.496 303.07 433.246 302.772 438.423 C 302.255 447.404 302.849 456.368 302.284 465.305 C 302.099 468.229 303.457 470.745 303.251 473.585 C 303.077 475.99 302.999 477.132 299.824 476.264 C 290.86 473.813 281.508 472.646 273.019 468.654 C 268.047 466.315 263.571 466.749 260.107 470.648 C 256.434 474.783 256.818 479.605 260.152 484.46 C 255.701 482.948 252.578 476.431 254.094 471.799 C 256.187 465.401 262.69 461.378 269.026 463.448 C 277.075 466.078 285.045 468.87 293.322 470.759 C 298.626 471.969 299.136 471.564 298.63 466.264 C 297.554 454.995 297.995 443.681 298.784 432.438 C 299.467 422.715 307.926 416.937 316.149 419.653 C 318.912 420.565 320.882 422.043 321.117 425.547 Z"/>
  <path fill="#CC9141" opacity="1.000000" stroke="none" d="M 221.86 564.773 C 225.721 567.416 225.877 571.15 224.37 575.46 C 222.742 580.115 219.951 581.633 214.857 582.041 C 201.59 583.106 188.514 580.908 175.355 580.525 C 164.257 580.202 152.978 580.152 141.972 577.831 C 140.7 577.563 139.384 577.361 138.193 576.874 C 134.011 575.163 130.275 576.403 127.437 579.293 C 124.409 582.377 123.552 586.38 125.539 590.571 C 125.958 591.456 126.502 592.282 127.152 593.46 C 122.943 592.043 119.721 585.715 120.942 581.262 C 122.568 575.327 128.723 570.727 134.597 572.14 C 152.384 576.419 170.527 575.871 188.565 577.013 C 195.874 577.476 203.159 577.806 210.468 577.817 C 218.724 577.829 220.484 576.135 221.281 567.685 C 221.359 566.861 221.561 566.049 221.86 564.773 Z"/>
  <path fill="#CC9141" opacity="1.000000" stroke="none" d="M 73.278 321.086 C 76.477 321.428 79.361 323.515 83.101 321.865 C 88.116 319.652 91.124 314.018 89.634 308.66 C 84.453 290.027 85.972 271.263 87.706 252.3 C 89.106 236.994 90.457 221.187 80.262 207.202 C 82.179 206.919 83.489 208.137 84.467 209.779 C 88.956 217.312 91.734 225.337 92.249 234.201 C 93.225 251.028 89.396 267.602 90.031 284.445 C 90.377 293.636 90.949 302.646 93.544 311.479 C 94.93 316.198 93.129 320.107 89.815 323.179 C 86.494 326.258 82.426 327.599 77.815 326.157 C 75.437 325.413 73.573 324.215 73.278 321.086 Z"/>
  <path fill="#CC9141" opacity="1.000000" stroke="none" d="M -104.722 464.087 C -98.396 466.446 -91.518 465.899 -84.871 466.772 C -82.251 467.116 -79.541 466.714 -76.884 466.86 C -72.975 467.075 -70.234 467.088 -70.512 473.2 C -71.314 490.821 -71.308 508.524 -70.607 526.154 C -70.174 537.03 -68.576 547.866 -68.692 558.813 C -68.719 561.376 -67.524 563.905 -65.853 566.454 C -71.791 564.716 -72.372 559.19 -72.65 554.23 C -74.057 529.143 -75.541 504.05 -74.835 478.894 C -74.61 470.877 -74.816 471.006 -82.807 470.779 C -87.952 470.633 -93.103 470.168 -98.216 469.559 C -101.244 469.198 -104.209 468.282 -104.722 464.087 Z"/>
  <path fill="#CC9141" opacity="1.000000" stroke="none" d="M 80.278 576.086 C 89.673 578.805 93.865 577.011 96.479 569.392 C 97.7 565.831 96.196 563.132 94.438 560.785 C 91.429 556.766 90.368 552.502 90.108 547.565 C 89.39 533.938 92.851 520.816 94.435 507.475 C 96.012 494.201 96.199 481.245 88.246 469.188 C 91.325 469.03 92.472 471.583 93.711 473.915 C 99.758 485.294 100.08 497.506 98.657 509.897 C 97.373 521.083 94.512 532.046 94.146 543.379 C 93.906 550.813 94.744 557.626 98.722 564.334 C 103.266 571.995 98.507 580.505 89.73 581.521 C 85.711 581.986 81.542 581.681 80.278 576.086 Z"/>
  <path fill="#CC9141" opacity="1.000000" stroke="none" d="M 223.118 480.551 C 216.075 476.761 208.616 474.953 200.249 474.589 C 186.523 473.992 173.693 476.504 161.267 481.906 C 153.182 485.42 142.687 499.583 147.012 511.417 C 148.472 515.413 149.814 519.44 152.138 523.449 C 150.902 523.673 149.809 523.132 148.893 521.99 C 136.898 507.042 142.587 485.019 160.016 477.224 C 175.622 470.243 191.885 469.278 208.365 471.24 C 214.018 471.913 220.984 472.647 223.118 480.551 Z"/>
  <path fill="#CC9141" opacity="1.000000" stroke="none" d="M -20.883 450.547 C -25.302 447.378 -30.59 448.468 -35.637 448.237 C -39.046 448.081 -42.454 447.915 -45.863 447.789 C -47.419 447.732 -47.777 446.79 -47.774 445.468 C -47.756 436.431 -48.454 427.316 -47.476 418.384 C -46.887 413.008 -46.944 407.576 -46.023 402.168 C -44.622 393.94 -44.063 385.637 -40.412 377.91 C -37.301 371.324 -31.274 369.787 -24.868 374.366 C -23.8 375.129 -22.962 376.215 -21.861 377.46 C -22.862 377.663 -24.038 377.655 -25.175 377.44 C -34.558 375.667 -36.633 376.838 -38.87 386.41 C -40.834 394.81 -42.199 403.347 -42.757 411.974 C -43.336 420.922 -43.666 429.886 -44.305 438.829 C -44.557 442.362 -43.015 443.747 -39.754 443.797 C -36.26 443.85 -32.738 443.624 -29.28 444.003 C -25.45 444.422 -21.47 445.106 -20.883 450.547 Z"/>
  <path fill="#332410" opacity="1.000000" stroke="none" d="M 340.145 257.889 C 344.368 265.25 343.725 267.458 339.791 272.588 C 335.105 278.698 331.007 279.494 323.617 276.774 C 323.192 276.383 323.029 276.128 322.535 275.865 C 318.439 273.477 316.997 269.485 315.908 265.559 C 315.041 262.432 316.351 259.382 318.539 256.923 C 323.491 251.358 334.676 251.498 339.936 257.536 C 340.143 257.922 340.168 257.877 340.145 257.889 Z"/>
  <path fill="#CC9141" opacity="1.000000" stroke="none" d="M 83.147 463.564 C 75.715 461.524 68.785 457.773 61.005 456.133 C 48.38 453.472 35.829 451.703 22.873 453.62 C 18.191 454.312 13.478 454.425 8.816 455.72 C 1.191 457.839 -3.578 465.221 2.152 473.46 C -3.041 472.529 -3.757 467.737 -4.19 463.732 C -4.682 459.192 -1.821 455.612 2.248 453.337 C 9.188 449.456 17.011 449.45 24.528 449.017 C 43.457 447.926 61.924 450.273 79.281 458.633 C 81.358 459.633 83.162 460.55 83.147 463.564 Z"/>
  <path fill="#CC9141" opacity="1.000000" stroke="none" d="M 368.117 491.548 C 359.426 487.577 349.996 485.645 340.537 483.854 C 336.198 483.032 331.81 482.472 327.453 481.74 C 324.901 481.311 324.156 479.722 324.146 477.179 C 324.118 470.167 323.657 463.156 323.653 456.145 C 323.649 448.871 324.063 441.597 324.121 434.322 C 324.143 431.493 322.873 428.948 321.271 426.213 C 327.453 428.304 328.265 434.123 328 439.39 C 327.511 449.147 328.17 458.88 327.748 468.617 C 327.393 476.799 327.994 477.549 336.106 479.069 C 344.916 480.719 353.727 482.306 362.215 485.326 C 365.186 486.384 367.862 487.479 368.117 491.548 Z"/>
  <path fill="#CC9141" opacity="1.000000" stroke="none" d="M 80.117 206.551 C 70.547 200.044 59.832 195.219 48.58 192.26 C 38.53 189.618 28.214 187.081 17.475 190.056 C 9.481 192.271 5.785 199.938 11.152 207.46 C 5.947 206.514 5.305 201.719 4.794 197.686 C 4.268 193.534 6.796 189.934 10.504 187.869 C 13.692 186.094 17.235 184.931 20.977 184.866 C 41.186 184.513 59.741 189.849 76.584 201.077 C 78.473 202.336 80.004 203.733 80.117 206.551 Z"/>
  <path fill="#CC9141" opacity="1.000000" stroke="none" d="M 173.484 514.986 C 170.773 513.853 168.92 511.541 167.817 508.845 C 166.443 505.486 166.801 502.645 170.627 500.599 C 177.932 496.693 185.788 495.917 193.801 495.67 C 195.788 495.608 197.781 495.797 199.771 495.822 C 203.837 495.874 207.698 495.508 211.336 498.676 C 215.093 501.948 219.884 501.077 223.435 497.881 C 226.959 494.71 227.993 490.446 225.721 485.874 C 224.993 484.408 224.193 482.977 223.267 481.209 C 228.978 482.685 229.729 488.169 230.564 492.762 C 231.399 497.355 228.202 500.888 224.11 503.086 C 219.795 505.404 215.34 505.617 211.528 502.291 C 209.296 500.343 207.014 499.804 204.262 499.805 C 197.109 499.807 189.982 499.743 182.896 501.145 C 171.732 503.354 171.017 504.253 173.484 514.986 Z"/>
  <path fill="#CC9141" opacity="1.000000" stroke="none" d="M -107.723 282.075 C -101.902 284.017 -97.383 288.471 -91.911 291.475 C -80.747 297.604 -68.758 300.309 -56.344 301.818 C -54.545 302.036 -52.666 301.866 -50.931 302.302 C -45.684 303.622 -40.796 302.711 -37.404 298.659 C -34.032 294.631 -34.515 289.881 -37.729 285.212 C -30.393 287.868 -29.081 298.312 -35.577 303.59 C -38.249 305.76 -41.367 306.874 -44.821 306.796 C -67.188 306.29 -87.664 300.245 -105.375 286.094 C -106.603 285.113 -107.56 284.064 -107.723 282.075 Z"/>
  <path fill="#CC9141" opacity="1.000000" stroke="none" d="M 192.117 237.55 C 186.133 234.071 179.393 232.896 172.443 232.861 C 160.461 232.803 148.381 232.172 137.058 237.394 C 135.285 238.212 134.196 237.733 134.216 235.567 C 134.248 232.249 133.597 228.769 134.395 225.655 C 135.402 221.722 134.196 218.69 132.272 215.214 C 137.669 216.557 138.647 221.482 138.582 225.939 C 138.515 230.557 140.065 230.815 143.822 230.267 C 156.522 228.412 169.294 227.824 182.009 230.004 C 186.314 230.742 191.204 231.331 192.117 237.55 Z"/>
  <path fill="#CC9141" opacity="1.000000" stroke="none" d="M -0.723 303.075 C 5.324 306.187 11.374 309.514 18.402 311.043 C 29.391 313.434 40.243 315.444 51.431 312.27 C 55.334 311.162 59.504 311.753 63.54 310.443 C 66.356 309.529 69.471 310.894 70.084 314.66 C 70.358 316.343 71.118 317.751 72.155 319.464 C 71.826 319.694 71.103 319.779 70.879 319.484 C 65.533 312.448 58.653 316.004 52.26 316.848 C 34.824 319.152 18.077 317.885 2.875 307.937 C 1.195 306.838 -0.548 305.766 -0.723 303.075 Z"/>
  <path fill="#CC9141" opacity="1.000000" stroke="none" d="M 3.278 554.076 C 14.935 560.702 28.234 562.424 41.239 564.51 C 49.97 565.911 58.869 567.858 67.828 566.74 C 72.603 566.144 75.158 568.273 77.155 572.463 C 66.471 569.256 55.014 571.144 43.969 568.938 C 33.751 566.896 23.328 565.743 13.453 562.298 C 9.375 560.876 5.047 559.167 3.278 554.076 Z"/>
  <path fill="#CC9141" opacity="1.000000" stroke="none" d="M 236.117 547.551 C 222.576 538.393 207.072 532.976 191.934 526.685 C 185.625 524.063 178.548 522.17 173.899 515.902 C 178.767 514.309 181.892 518.588 185.935 520.109 C 196.94 524.249 207.651 529.169 218.494 533.742 C 224.046 536.084 228.858 539.632 233.813 542.954 C 235.313 543.959 235.953 545.436 236.117 547.551 Z"/>
  <path fill="#CC9141" opacity="1.000000" stroke="none" d="M -37.883 284.547 C -42.36 281.82 -47.679 281.296 -52.802 280.952 C -61.687 280.357 -70.11 278.593 -78.39 275.177 C -84.6 272.614 -89.572 268.605 -94.756 264.175 C -92.479 263.66 -90.356 264.37 -88.363 265.791 C -78.295 272.971 -66.78 275.751 -54.693 276.867 C -50.893 277.218 -47.102 277.82 -43.356 278.557 C -40.37 279.144 -38.128 280.754 -37.883 284.547 Z"/>
  <path fill="#CC9141" opacity="1.000000" stroke="none" d="M 162.278 535.077 C 168.698 537.075 173.995 541.596 180.473 544.085 C 187.161 546.654 193.839 549.328 200.451 552.094 C 207.749 555.147 215.44 557.75 221.509 563.762 C 217.081 565.269 213.576 561.953 210.245 560.156 C 204.299 556.947 197.805 555.523 191.77 552.768 C 183.004 548.766 174.023 545.243 165.982 539.796 C 164.305 538.66 162.467 537.798 162.278 535.077 Z"/>
  <path fill="#CC9141" opacity="1.000000" stroke="none" d="M -3.722 405.086 C -0.389 405.585 2.71 407.544 6.534 405.753 C 11.138 403.595 14.036 397.805 12.702 392.756 C 10.843 385.725 7.453 379.472 3.261 373.201 C 10.542 375.661 19.117 396.293 15.732 403.264 C 12.978 408.936 6.412 411.949 0.797 410.154 C -1.571 409.397 -3.428 408.205 -3.722 405.086 Z"/>
  <path fill="#CC9141" opacity="1.000000" stroke="none" d="M 340.117 257.547 C 336.353 254.77 331.584 254.673 327.286 255.1 C 319.514 255.871 315.43 262.996 318.665 269.712 C 319.583 271.619 320.879 273.344 322.159 275.469 C 318.219 274.253 313.351 266.527 313.602 261.956 C 313.849 257.48 317.928 252.785 322.9 251.497 C 326.979 250.442 331.093 250.491 335.168 251.679 C 337.956 252.491 339.882 254.058 340.117 257.547 Z"/>
  <path fill="#CC9141" opacity="1.000000" stroke="none" d="M -14.712 385.116 C -10.845 387.657 -9.21 391.911 -7.766 396.328 C -7.007 398.649 -5.94 400.869 -4.848 403.46 C -7.028 403.734 -8.273 402.227 -9.035 400.288 C -10.966 395.377 -12.808 390.43 -14.712 385.116 Z"/>
  <path fill="#CC9141" opacity="1.000000" stroke="none" d="M -21.709 378.094 C -18.303 378.622 -16.709 381.447 -14.852 384.461 C -18.184 383.941 -20.656 382 -21.709 378.094 Z"/>
  <path fill="#CC9141" opacity="1.000000" stroke="none" d="M 240.131 552.571 C 238.258 552.004 237.415 550.171 236.251 548.188 C 238.831 548.036 239.871 549.743 240.131 552.571 Z"/>
  <path fill="#CC9141" opacity="1.000000" stroke="none" d="M 152.288 524.106 C 154.175 524.661 154.989 526.518 156.172 528.485 C 153.614 528.621 152.531 526.952 152.288 524.106 Z"/>
  <path fill="#CC9141" opacity="1.000000" stroke="none" d="M 3.117 372.55 C 1.23 371.995 0.416 370.138 -0.767 368.171 C 1.791 368.035 2.874 369.704 3.117 372.55 Z"/>
  <path fill="#CC9141" opacity="1.000000" stroke="none" d="M -112.726 276.087 C -110.841 276.651 -110.021 278.513 -108.829 280.485 C -111.398 280.621 -112.468 278.93 -112.726 276.087 Z"/>
  <path fill="#CC9141" opacity="1.000000" stroke="none" d="M 69.202 537.842 C 69.038 546.982 70.368 546.242 61.906 545.699 C 47.982 544.805 34.188 542.661 20.659 539.039 C 18.16 538.371 16.085 537.448 16.281 534.597 C 16.478 531.725 15.296 528.931 18.788 526.258 C 24.7 521.736 31.429 522.596 37.746 522.053 C 47.553 521.211 57.487 521.905 67.365 521.789 C 70.754 521.749 71.951 522.611 70.623 526.141 C 69.281 529.711 68.91 533.527 69.202 537.842 Z"/>
  <path fill="#CC9141" opacity="1.000000" stroke="none" d="M 31.422 272.874 C 40.179 271.156 48.479 269.159 56.892 267.945 C 63.237 267.03 65.193 269.211 65.202 275.472 C 65.205 277.305 65.202 279.138 65.202 280.971 C 65.202 288.674 65.292 289.386 57.665 290.354 C 50.828 291.222 44.168 293.323 37.085 292.963 C 30.762 292.642 24.774 291.026 18.69 289.749 C 16.133 289.213 13.516 288.174 13.225 284.851 C 12.922 281.388 15.363 279.983 17.865 278.525 C 22.019 276.104 26.534 274.567 31.422 272.874 Z"/>
  <path fill="#CC9141" opacity="1.000000" stroke="none" d="M 226.203 280.696 C 226.203 270.424 227.063 269.807 237.132 271.687 C 241.603 272.522 246.126 271.797 250.746 272.548 C 261.794 274.343 265.719 289.935 263.885 297.511 C 263.735 298.129 263.407 298.949 262.917 299.202 C 256.898 302.312 252.022 307.895 244.526 307.822 C 240.375 307.782 236.397 308.745 232.386 309.657 C 230.194 310.155 228.451 310.168 228.011 306.8 C 227.605 303.686 227.156 300.607 227.214 297.473 C 227.316 292.007 227.247 286.558 226.203 280.696 Z"/>
</svg>